<?xml version="1.0" encoding="UTF-8" standalone="no"?>
<svg
   xmlns:dc="http://purl.org/dc/elements/1.1/"
   xmlns:cc="http://creativecommons.org/ns#"
   xmlns:rdf="http://www.w3.org/1999/02/22-rdf-syntax-ns#"
   xmlns:svg="http://www.w3.org/2000/svg"
   xmlns="http://www.w3.org/2000/svg"
   id="svg278"
   xml:space="preserve"
   viewBox="0 0 4756 3499"
   height="3499"
   width="4756"
   version="1.1"><metadata
     id="metadata282"><rdf:RDF><cc:Work
         rdf:about=""><dc:format>image/svg+xml</dc:format><dc:type
           rdf:resource="http://purl.org/dc/dcmitype/StillImage" /></cc:Work></rdf:RDF></metadata><desc
     id="desc2">Created with Fabric.js 1.7.7</desc><defs
     id="defs4" /><rect
     id="rect6"
     fill="000000"
     height="3499"
     width="4756"
     y="0"
     x="0" /><g
     id="g276"
     transform="translate(2378.34,1750)"><g
       id="g274"
       transform="scale(21.27)"><g
         id="g266"
         transform="matrix(0.24,0,0,0.24,31.49,-13.59)"><path
           id="path8"
           transform="translate(-262.58,-236.899)"
           style="opacity:1;fill:#ffffff;fill-rule:evenodd;stroke:#000000;stroke-width:0.5;stroke-linecap:butt;stroke-linejoin:miter;stroke-miterlimit:10;stroke-dasharray:none"
           d="m 219.5,324.75 c 0.133,-7.667 0.683,-15.551 1.65,-23.65 l 0.4,4.9 4.5,30.6 1.2,7.35 0.4,9.4 v 0.4 0.399 l 0.4,4.5 v 0.4 0.399 l 1.65,5.7 0.4,3.7 v 0.8 l 0.8,6.95 c -2.1,-3.4 -4.4,-6.8 -6.9,-10.2 -2.933,-14.298 -4.433,-28.181 -4.5,-41.648 z" /><path
           id="path10"
           transform="translate(-262.575,-236.905)"
           style="opacity:1;fill:#ffffff;fill-rule:evenodd;stroke:#000000;stroke-width:0.5;stroke-linecap:butt;stroke-linejoin:miter;stroke-miterlimit:10;stroke-dasharray:none"
           d="m 217.05,324.35 c 0.067,-9.3 0.75,-18.816 2.05,-28.55 0.667,1.167 1.35,2.116 2.05,2.851 v 2.049 c -1.167,7.9 -1.717,15.783 -1.65,23.65 0.066,13.467 1.566,27.334 4.5,41.6 -0.434,-0.199 -0.434,-0.6 0,-1.199 -1.1,-1.367 -2.2,-2.733 -3.3,-4.1 -2.433,-12.301 -3.65,-24.401 -3.65,-36.301 z" /><path
           id="path12"
           transform="translate(-262.58,-236.90176)"
           style="opacity:1;fill:#ffffff;fill-rule:evenodd;stroke:#000000;stroke-width:0.5;stroke-linecap:butt;stroke-linejoin:miter;stroke-miterlimit:10;stroke-dasharray:none"
           d="m 219.9,288.85 c 0.133,-0.066 0.267,0.066 0.4,0.4 z" /><path
           id="path14"
           transform="translate(-262.575,-236.8995)"
           style="opacity:1;fill:#ffffff;fill-rule:evenodd;stroke:#000000;stroke-width:0.5;stroke-linecap:butt;stroke-linejoin:miter;stroke-miterlimit:10;stroke-dasharray:none"
           d="m 220.3,294.949 0.4,4.101 c -0.7,-1.167 -1.383,-2.116 -2.05,-2.851 0.4,-2.467 0.8,-4.916 1.2,-7.35 l 0.45,0.4 v 5.3 z" /><path
           id="path16"
           transform="translate(-262.575,-236.8965)"
           style="opacity:1;fill:#ffffff;fill-rule:evenodd;stroke:#000000;stroke-width:0.5;stroke-linecap:butt;stroke-linejoin:miter;stroke-miterlimit:10;stroke-dasharray:none"
           d="m 213.75,324.301 c 0,-10.667 0.817,-21.134 2.45,-31.4 0.8,0.967 1.617,1.916 2.45,2.85 -1.3,9.734 -1.983,19.25 -2.05,28.551 0,11.899 1.233,24.016 3.7,36.35 -1.233,-1.5 -2.466,-3 -3.7,-4.5 -1.767,-10.202 -2.717,-20.818 -2.85,-31.851 z" /><path
           id="path18"
           transform="translate(-262.575,-236.9045)"
           style="opacity:1;fill:#ffffff;fill-rule:evenodd;stroke:#000000;stroke-width:0.5;stroke-linecap:butt;stroke-linejoin:miter;stroke-miterlimit:10;stroke-dasharray:none"
           d="m 219.9,288.4 c -0.9,-0.734 -1.583,-1.684 -2.05,-2.851 0.467,0.968 1.15,1.918 2.05,2.851 z" /><path
           id="path20"
           transform="translate(-262.575,-236.8995)"
           style="opacity:1;fill:#ffffff;fill-rule:evenodd;stroke:#000000;stroke-width:0.5;stroke-linecap:butt;stroke-linejoin:miter;stroke-miterlimit:10;stroke-dasharray:none"
           d="m 219.85,288.4 c -0.467,2.467 -0.733,4.916 -0.8,7.35 -0.833,-0.967 -1.65,-1.917 -2.45,-2.85 0.4,-2.467 0.8,-4.918 1.2,-7.351 0.5,0.968 1.183,1.918 2.05,2.851 z" /><path
           id="path22"
           transform="translate(-262.5795,-236.899)"
           style="opacity:1;fill:#ffffff;fill-rule:evenodd;stroke:#000000;stroke-width:0.5;stroke-linecap:butt;stroke-linejoin:miter;stroke-miterlimit:10;stroke-dasharray:none"
           d="m 288,325.949 10.199,-5.3 4.5,-2.05 c 0,1.9 0,3.8 0,5.7 -0.066,14.966 -1.967,30.333 -5.699,46.1 -12.867,20.134 -22.268,38.634 -28.2,55.5 0,-7.399 -0.4,-15.417 -1.2,-24.05 2.933,-28.165 9.733,-53.466 20.4,-75.9 z" /><path
           id="path24"
           transform="translate(-262.5715,-236.8995)"
           style="opacity:1;fill:#ffffff;fill-rule:evenodd;stroke:#000000;stroke-width:0.5;stroke-linecap:butt;stroke-linejoin:miter;stroke-miterlimit:10;stroke-dasharray:none"
           d="m 286.801,326.35 0.8,-0.8 c -10.866,22.433 -17.667,47.733 -20.4,75.899 v -0.399 c -0.134,-1.634 -0.267,-3.267 -0.399,-4.899 v -6.951 -0.4 -0.4 l -0.4,-3.701 V 384.3 l 0.4,-4.899 c 0.467,-3.668 1.149,-7.334 2.05,-11 l 1.2,-0.851 0.85,-1.2 0.4,-0.8 1.199,-2.05 -0.399,-1.65 c 1.167,-1.967 1.716,-3.732 1.649,-5.3 v -0.399 -0.4 l -0.399,-5.7 v -0.45 c 0.333,-1.767 0.866,-3.533 1.6,-5.3 0.134,-0.533 0.284,-1.067 0.45,-1.601 3.633,-6.732 6.35,-11.149 8.15,-13.25 1.799,-2.067 2.882,-3.1 3.249,-3.1 z" /><path
           id="path26"
           transform="translate(-262.5805,-236.9005)"
           style="opacity:1;fill:#ffffff;fill-rule:evenodd;stroke:#000000;stroke-width:0.5;stroke-linecap:butt;stroke-linejoin:miter;stroke-miterlimit:10;stroke-dasharray:none"
           d="m 267.6,401.051 c -0.133,-0.667 -0.266,-1.351 -0.399,-2.051 v -2.85 c 0.133,1.633 0.266,3.267 0.399,4.901 z" /><path
           id="path28"
           transform="translate(-262.57614,-236.896)"
           style="opacity:1;fill:#ffffff;fill-rule:evenodd;stroke:#000000;stroke-width:0.5;stroke-linecap:butt;stroke-linejoin:miter;stroke-miterlimit:10;stroke-dasharray:none"
           d="m 302.7,324.351 c 0.134,-1.9 -0.134,-3.817 -0.8,-5.75 l 2.85,-1.2 c 0,2.3 0,4.617 0,6.95 0.066,13.033 -1.3,26.5 -4.1,40.399 -0.867,1.634 -1.95,3.25 -3.25,4.851 -0.134,0.3 -0.268,0.583 -0.4,0.85 3.733,-15.567 5.633,-30.933 5.7,-46.1 z" /><path
           id="path30"
           transform="translate(-262.576,-236.905)"
           style="opacity:1;fill:#ffffff;fill-rule:evenodd;stroke:#000000;stroke-width:0.5;stroke-linecap:butt;stroke-linejoin:miter;stroke-miterlimit:10;stroke-dasharray:none"
           d="m 305.6,324.35 c 0,-2.367 0,-4.55 0,-6.55 l 2.851,-1.2 c 0,2.367 0,4.95 0,7.75 -0.067,12.233 -1.167,24.066 -3.3,35.5 -1.2,1.633 -2.417,3.267 -3.65,4.9 2.565,-13.867 3.933,-27.334 4.099,-40.4 z" /><path
           id="path32"
           transform="translate(-262.58,-236.9045)"
           style="opacity:1;fill:#ffffff;fill-rule:evenodd;stroke:#000000;stroke-width:0.5;stroke-linecap:butt;stroke-linejoin:miter;stroke-miterlimit:10;stroke-dasharray:none"
           d="m 170.1,375.75 c -3.667,-5.367 -6.933,-10.934 -9.8,-16.7 -8.034,-15.167 -14.017,-31.767 -17.95,-49.8 16.4,8.5 30.95,18.434 43.65,29.8 9.867,9.233 19.117,19.7 27.75,31.4 4.233,18.1 9.667,34.149 16.3,48.149 C 214.55,402.9 194.567,388.617 170.1,375.75 Z" /><path
           id="path34"
           transform="translate(-262.57609,-236.905)"
           style="opacity:1;fill:#ffffff;fill-rule:evenodd;stroke:#000000;stroke-width:0.5;stroke-linecap:butt;stroke-linejoin:miter;stroke-miterlimit:10;stroke-dasharray:none"
           d="m 141.95,309.2 c -0.267,-0.866 -0.533,-1.95 -0.8,-3.25 17.6,8.7 32.967,19.033 46.1,31 8.9,7.967 17.2,16.95 24.9,26.95 0.4,1.967 0.8,3.732 1.2,5.3 0.367,0.399 0.5,0.8 0.4,1.2 -8.2,-11.9 -17.434,-22.367 -27.7,-31.4 -12.667,-11.166 -27.367,-21.1 -44.1,-29.8 z" /><path
           id="path36"
           transform="translate(-262.58,-236.9)"
           style="opacity:1;fill:#ffffff;fill-rule:evenodd;stroke:#000000;stroke-width:0.5;stroke-linecap:butt;stroke-linejoin:miter;stroke-miterlimit:10;stroke-dasharray:none"
           d="m 141.55,305.55 c -0.267,-1.067 -0.533,-2.149 -0.8,-3.25 16.6,8.033 32.783,18.917 48.55,32.649 8.167,7.334 15.517,15.084 22.05,23.25 0.4,1.9 0.8,3.801 1.2,5.701 -7.667,-10 -15.966,-18.967 -24.9,-26.9 -13.1,-11.7 -28.467,-22.184 -46.1,-31.45 z" /><path
           id="path38"
           transform="translate(-262.58,-236.9)"
           style="opacity:1;fill:#ffffff;fill-rule:evenodd;stroke:#000000;stroke-width:0.5;stroke-linecap:butt;stroke-linejoin:miter;stroke-miterlimit:10;stroke-dasharray:none"
           d="m 213.35,369.2 c -0.267,-1.566 -0.533,-3.333 -0.8,-5.3 0.4,0.666 0.8,1.35 1.2,2.05 -0.534,0.866 -0.667,1.95 -0.4,3.25 z" /><path
           id="path40"
           transform="translate(-262.57776,-236.905)"
           style="opacity:1;fill:#ffffff;fill-rule:evenodd;stroke:#000000;stroke-width:0.5;stroke-linecap:butt;stroke-linejoin:miter;stroke-miterlimit:10;stroke-dasharray:none"
           d="m 213.75,365.95 c -0.333,-0.467 -0.883,-1.149 -1.65,-2.05 -0.4,-1.9 -0.8,-3.801 -1.2,-5.7 1.233,1.5 2.45,3 3.65,4.5 0.367,0.399 0.517,0.8 0.45,1.2 -0.434,0.7 -0.85,1.383 -1.25,2.05 z" /><path
           id="path42"
           transform="translate(-262.58033,-236.9)"
           style="opacity:1;fill:#ffffff;fill-rule:evenodd;stroke:#000000;stroke-width:0.5;stroke-linecap:butt;stroke-linejoin:miter;stroke-miterlimit:10;stroke-dasharray:none"
           d="m 215,363.1 c 0.067,0.267 0.333,0.533 0.8,0.8 l -0.4,0.4 c -0.333,-0.401 -0.467,-0.8 -0.4,-1.2 z" /><path
           id="path44"
           transform="translate(-262.58,-236.905)"
           style="opacity:1;fill:#ffffff;fill-rule:evenodd;stroke:#000000;stroke-width:0.5;stroke-linecap:butt;stroke-linejoin:miter;stroke-miterlimit:10;stroke-dasharray:none"
           d="m 138.7,308 c 1.1,0.533 2.183,1.084 3.25,1.65 4.167,18 10.15,34.583 17.95,49.75 2.867,5.566 6.133,11.149 9.8,16.75 -0.4,-0.268 -0.8,-0.551 -1.2,-0.851 -0.833,-0.6 -2.066,-1 -3.7,-1.2 -2.767,-4.5 -5.35,-8.982 -7.75,-13.449 C 148.883,344.717 142.767,327.166 138.7,308 Z" /><path
           id="path46"
           transform="translate(-262.58,-236.9)"
           style="opacity:1;fill:#ffffff;fill-rule:evenodd;stroke:#000000;stroke-width:0.5;stroke-linecap:butt;stroke-linejoin:miter;stroke-miterlimit:10;stroke-dasharray:none"
           d="m 141.55,306 c 0.2,1.266 0.617,2.35 1.25,3.25 -1.1,-0.533 -2.2,-1.084 -3.3,-1.65 -0.267,-1.066 -0.533,-2.15 -0.8,-3.25 0.967,0.733 1.917,1.283 2.85,1.65 z" /><path
           id="path48"
           transform="translate(-262.575,-236.9)"
           style="opacity:1;fill:#ffffff;fill-rule:evenodd;stroke:#000000;stroke-width:0.5;stroke-linecap:butt;stroke-linejoin:miter;stroke-miterlimit:10;stroke-dasharray:none"
           d="m 141.55,306 c -0.933,-0.334 -1.883,-0.884 -2.85,-1.65 -0.267,-1.066 -0.533,-2.15 -0.8,-3.25 0.967,0.733 1.917,1.283 2.85,1.65 0.267,1.066 0.533,2.149 0.8,3.25 z" /><path
           id="path50"
           transform="translate(-262.58,-236.9)"
           style="opacity:1;fill:#ffffff;fill-rule:evenodd;stroke:#000000;stroke-width:0.5;stroke-linecap:butt;stroke-linejoin:miter;stroke-miterlimit:10;stroke-dasharray:none"
           d="m 136.65,306 c 0.967,0.733 1.917,1.283 2.85,1.65 4.1,19.166 10.217,36.699 18.35,52.6 2.1,4.566 4.833,8.916 8.2,13.05 -1.5,-0.667 -3,-1.333 -4.5,-2 -2.133,-3.2 -4.033,-6.6 -5.7,-10.2 -9.267,-18.567 -15.667,-36.934 -19.2,-55.1 z" /><path
           id="path52"
           transform="translate(-262.575,-236.9)"
           style="opacity:1;fill:#ffffff;fill-rule:evenodd;stroke:#000000;stroke-width:0.5;stroke-linecap:butt;stroke-linejoin:miter;stroke-miterlimit:10;stroke-dasharray:none"
           d="m 138.7,304.75 c 0.133,0.866 0.267,1.949 0.4,3.25 -0.733,-0.734 -1.683,-1.283 -2.85,-1.65 -0.267,-1.066 -0.533,-2.15 -0.8,-3.25 1.3,0.733 2.383,1.283 3.25,1.65 z" /><path
           id="path54"
           transform="translate(-262.575,-236.9)"
           style="opacity:1;fill:#ffffff;fill-rule:evenodd;stroke:#000000;stroke-width:0.5;stroke-linecap:butt;stroke-linejoin:miter;stroke-miterlimit:10;stroke-dasharray:none"
           d="m 137.85,301.05 c 0.066,1.233 0.333,2.466 0.8,3.7 -1.066,-0.734 -2.15,-1.283 -3.25,-1.65 -0.133,-1.066 -0.267,-2.15 -0.4,-3.25 0.967,0.4 1.917,0.799 2.85,1.2 z" /><path
           id="path56"
           transform="translate(-262.58,-236.899)"
           style="opacity:1;fill:#ffffff;fill-rule:evenodd;stroke:#000000;stroke-width:0.5;stroke-linecap:butt;stroke-linejoin:miter;stroke-miterlimit:10;stroke-dasharray:none"
           d="m 198.15,425.399 c 12.466,11.3 23.933,20.317 34.4,27.05 -4.9,-1.3 -10.2,-2.8 -15.9,-4.5 -12.167,-3.566 -25.967,-9.083 -41.4,-16.55 -15.466,-7.5 -30.5,-17.616 -45.1,-30.35 -11.1,-9.934 -21.167,-21.5 -30.2,-34.7 15.967,1.767 30.933,5.166 44.9,10.2 5.967,2.366 11.95,4.95 17.95,7.75 11.067,16.1 22.85,29.801 35.35,41.1 z" /><path
           id="path58"
           transform="translate(-262.58,-236.9005)"
           style="opacity:1;fill:#ffffff;fill-rule:evenodd;stroke:#000000;stroke-width:0.5;stroke-linecap:butt;stroke-linejoin:miter;stroke-miterlimit:10;stroke-dasharray:none"
           d="m 231.7,452.45 c 2.4,1.366 4.583,2.733 6.55,4.101 -14.066,-2.668 -31.217,-8.117 -51.45,-16.351 -20.267,-8.233 -39.983,-20.601 -59.15,-37.101 -11.6,-10.566 -22.2,-22.949 -31.8,-37.149 1.233,0.134 2.45,0.267 3.65,0.399 9.067,13.201 19.133,24.768 30.2,34.701 14.633,12.732 29.667,22.85 45.1,30.35 15.433,7.467 29.233,12.982 41.4,16.55 6,1.9 11.167,3.4 15.5,4.5 z" /><path
           id="path60"
           transform="translate(-262.58,-236.9045)"
           style="opacity:1;fill:#ffffff;fill-rule:evenodd;stroke:#000000;stroke-width:0.5;stroke-linecap:butt;stroke-linejoin:miter;stroke-miterlimit:10;stroke-dasharray:none"
           d="m 238.65,456.55 c 2.367,1.634 4.55,2.851 6.55,3.649 v 0.4 c -8.8,-1.533 -19.817,-4.333 -33.05,-8.4 -13.233,-4.033 -27.3,-9.85 -42.2,-17.449 -14.9,-7.6 -29.267,-17.483 -43.1,-29.65 -13.533,-12.566 -24.817,-25.75 -33.85,-39.55 0.9,0.333 1.983,0.467 3.25,0.399 9.4,14.201 20.017,26.584 31.85,37.15 19.167,16.5 38.867,28.867 59.1,37.1 20.233,8.268 37.383,13.717 51.45,16.351 z" /><path
           id="path62"
           transform="translate(-262.575,-236.9)"
           style="opacity:1;fill:#ffffff;fill-rule:evenodd;stroke:#000000;stroke-width:0.5;stroke-linecap:butt;stroke-linejoin:miter;stroke-miterlimit:10;stroke-dasharray:none"
           d="m 145.65,374.5 c 4.767,1.7 9.517,3.601 14.25,5.7 0.7,1.3 1.383,2.4 2.05,3.3 0.267,0.4 0.534,0.801 0.8,1.2 -5.767,-3 -11.75,-5.583 -17.95,-7.75 -14.333,-5.233 -29.283,-8.634 -44.85,-10.2 -0.7,-0.934 -1.383,-1.883 -2.05,-2.85 16.933,1.701 32.85,5.234 47.75,10.6 z" /><path
           id="path64"
           transform="translate(-262.58,-236.905)"
           style="opacity:1;fill:#ffffff;fill-rule:evenodd;stroke:#000000;stroke-width:0.5;stroke-linecap:butt;stroke-linejoin:miter;stroke-miterlimit:10;stroke-dasharray:none"
           d="m 97.9,363.5 c 0.433,1.166 1.25,2.116 2.45,2.85 -1.233,-0.133 -2.45,-0.267 -3.65,-0.4 -0.7,-0.934 -1.383,-1.883 -2.05,-2.85 0.9,0.132 1.983,0.266 3.25,0.4 z" /><path
           id="path66"
           transform="translate(-262.58,-236.896)"
           style="opacity:1;fill:#ffffff;fill-rule:evenodd;stroke:#000000;stroke-width:0.5;stroke-linecap:butt;stroke-linejoin:miter;stroke-miterlimit:10;stroke-dasharray:none"
           d="m 94.2,363.1 c 0.7,1.168 1.383,2.117 2.05,2.851 -0.867,-0.333 -1.95,-0.467 -3.25,-0.399 -0.7,-0.934 -1.383,-1.884 -2.05,-2.851 0.9,0.332 1.984,0.466 3.25,0.399 z" /><path
           id="path68"
           transform="translate(-262.575,-236.9)"
           style="opacity:1;fill:#ffffff;fill-rule:evenodd;stroke:#000000;stroke-width:0.5;stroke-linecap:butt;stroke-linejoin:miter;stroke-miterlimit:10;stroke-dasharray:none"
           d="m 146.45,371.25 c 3.867,1.5 7.533,3 11,4.5 0.833,1.367 1.65,2.733 2.45,4.1 -4.767,-2.1 -9.517,-4.016 -14.25,-5.75 -15.1,-5.1 -31.017,-8.766 -47.75,-11 -0.7,-0.934 -1.383,-1.883 -2.05,-2.85 16.467,1.434 33.334,5.1 50.6,11 z" /><path
           id="path70"
           transform="translate(-262.58,-236.90324)"
           style="opacity:1;fill:#ffffff;fill-rule:evenodd;stroke:#000000;stroke-width:0.5;stroke-linecap:butt;stroke-linejoin:miter;stroke-miterlimit:10;stroke-dasharray:none"
           d="m 97.9,363.5 c -1.3,0.066 -2.383,-0.066 -3.25,-0.4 -0.7,-0.934 -1.383,-1.883 -2.05,-2.85 0.9,0.133 1.983,0.267 3.25,0.4 0.7,0.967 1.383,1.916 2.05,2.85 z" /><path
           id="path72"
           transform="translate(-262.58,-236.905)"
           style="opacity:1;fill:#ffffff;fill-rule:evenodd;stroke:#000000;stroke-width:0.5;stroke-linecap:butt;stroke-linejoin:miter;stroke-miterlimit:10;stroke-dasharray:none"
           d="m 92.6,360.25 c 0.5,1.166 1.183,2.116 2.05,2.85 -0.867,-0.334 -1.95,-0.467 -3.25,-0.4 -0.9,-0.934 -1.583,-1.883 -2.05,-2.85 0.9,0.334 1.983,0.466 3.25,0.4 z" /><path
           id="path74"
           transform="translate(-262.575,-236.905)"
           style="opacity:1;fill:#ffffff;fill-rule:evenodd;stroke:#000000;stroke-width:0.5;stroke-linecap:butt;stroke-linejoin:miter;stroke-miterlimit:10;stroke-dasharray:none"
           d="m 161.95,383.1 c -0.9,-0.934 -1.583,-1.883 -2.05,-2.85 0.4,0.133 0.8,0.267 1.2,0.4 0.067,0.833 0.35,1.65 0.85,2.45 z" /><path
           id="path76"
           transform="translate(-262.58,-236.8995)"
           style="opacity:1;fill:#ffffff;fill-rule:evenodd;stroke:#000000;stroke-width:0.5;stroke-linecap:butt;stroke-linejoin:miter;stroke-miterlimit:10;stroke-dasharray:none"
           d="m 160.7,380.65 c 0,-0.066 -0.4,-0.334 -1.2,-0.801 -0.833,-1.366 -1.65,-2.732 -2.45,-4.1 1.367,0.666 2.733,1.35 4.1,2.05 -0.334,0.934 -0.483,1.885 -0.45,2.851 z" /><path
           id="path78"
           transform="translate(-262.58,-236.9)"
           style="opacity:1;fill:#ffffff;fill-rule:evenodd;stroke:#000000;stroke-width:0.5;stroke-linecap:butt;stroke-linejoin:miter;stroke-miterlimit:10;stroke-dasharray:none"
           d="m 364.301,359.05 c -2.867,5.767 -6.134,11.333 -9.801,16.7 -13.267,6.7 -25.267,14.15 -36,22.35 -10.732,8.2 -20.083,16.25 -28.05,24.15 6.399,-13.533 11.983,-29.3 16.75,-47.3 9.3,-13.601 19.634,-25.567 31,-35.9 12.833,-11.366 27.517,-21.3 44.05,-29.8 -4.133,18 -10.117,34.6 -17.949,49.8 z" /><path
           id="path80"
           transform="translate(-262.58,-236.905)"
           style="opacity:1;fill:#ffffff;fill-rule:evenodd;stroke:#000000;stroke-width:0.5;stroke-linecap:butt;stroke-linejoin:miter;stroke-miterlimit:10;stroke-dasharray:none"
           d="m 383.1,306 c -0.266,0.9 -0.549,1.983 -0.85,3.25 -16.699,8.5 -31.383,18.434 -44.05,29.8 -11.366,10.333 -21.7,22.3 -31,35.9 0.333,-0.067 0.467,-0.333 0.399,-0.8 0.4,-2.101 0.817,-4.018 1.25,-5.75 8.634,-11.734 17.884,-22.066 27.75,-31 13.434,-12.1 28.934,-22.566 46.501,-31.4 z" /><path
           id="path82"
           transform="translate(-262.5745,-236.9)"
           style="opacity:1;fill:#ffffff;fill-rule:evenodd;stroke:#000000;stroke-width:0.5;stroke-linecap:butt;stroke-linejoin:miter;stroke-miterlimit:10;stroke-dasharray:none"
           d="m 383.9,302.3 c -0.268,1.101 -0.533,2.183 -0.801,3.25 -17.533,9.033 -33.033,19.517 -46.5,31.45 -10.333,9.1 -19.449,19.434 -27.35,31 0.4,-2.033 0.816,-4.084 1.25,-6.15 6.934,-9.367 15.084,-18.333 24.45,-26.9 15.701,-13.733 32.018,-24.617 48.951,-32.65 z" /><path
           id="path84"
           transform="translate(-262.5755,-236.901)"
           style="opacity:1;fill:#ffffff;fill-rule:evenodd;stroke:#000000;stroke-width:0.5;stroke-linecap:butt;stroke-linejoin:miter;stroke-miterlimit:10;stroke-dasharray:none"
           d="m 307.6,374.101 c 0.067,-1.3 -0.066,-2.384 -0.399,-3.25 0.533,-0.833 1.083,-1.65 1.649,-2.45 -0.433,1.7 -0.85,3.599 -1.25,5.7 z" /><path
           id="path86"
           transform="translate(-262.5795,-236.905)"
           style="opacity:1;fill:#ffffff;fill-rule:evenodd;stroke:#000000;stroke-width:0.5;stroke-linecap:butt;stroke-linejoin:miter;stroke-miterlimit:10;stroke-dasharray:none"
           d="m 306.4,366.75 c 1.232,-1.634 2.467,-3.268 3.699,-4.9 -0.434,2.033 -0.85,4.066 -1.25,6.1 -0.533,0.834 -1.083,1.65 -1.649,2.45 -0.4,-0.533 -0.8,-1.066 -1.2,-1.6 -0.066,-0.7 0.066,-1.384 0.4,-2.05 z" /><path
           id="path88"
           transform="translate(-262.5705,-236.905)"
           style="opacity:1;fill:#ffffff;fill-rule:evenodd;stroke:#000000;stroke-width:0.5;stroke-linecap:butt;stroke-linejoin:miter;stroke-miterlimit:10;stroke-dasharray:none"
           d="m 306.35,366.75 c -0.333,0.733 -0.467,1.283 -0.4,1.65 l -0.399,-0.45 c 0.066,-0.4 0.332,-0.8 0.799,-1.2 z" /><path
           id="path90"
           transform="translate(-262.5795,-236.8955)"
           style="opacity:1;fill:#ffffff;fill-rule:evenodd;stroke:#000000;stroke-width:0.5;stroke-linecap:butt;stroke-linejoin:miter;stroke-miterlimit:10;stroke-dasharray:none"
           d="m 381.5,309.25 c 1.066,-0.566 2.15,-1.117 3.25,-1.65 -4.1,19.166 -10.217,36.717 -18.35,52.65 -2.067,4.333 -4.518,8.684 -7.351,13.05 -1.101,0.533 -2.183,1.066 -3.25,1.6 -0.433,0.3 -0.851,0.583 -1.25,0.851 3.667,-5.601 6.933,-11.184 9.8,-16.75 C 372.283,343.833 378,327.25 381.5,309.25 Z" /><path
           id="path92"
           transform="translate(-262.5755,-236.9)"
           style="opacity:1;fill:#ffffff;fill-rule:evenodd;stroke:#000000;stroke-width:0.5;stroke-linecap:butt;stroke-linejoin:miter;stroke-miterlimit:10;stroke-dasharray:none"
           d="m 385.1,307.6 c -0.934,0.767 -1.883,1.316 -2.85,1.65 0.267,-0.9 0.533,-1.984 0.8,-3.25 0.967,-0.768 1.917,-1.316 2.851,-1.65 -0.268,1.099 -0.534,2.183 -0.801,3.25 z" /><path
           id="path94"
           transform="translate(-262.5745,-236.9)"
           style="opacity:1;fill:#ffffff;fill-rule:evenodd;stroke:#000000;stroke-width:0.5;stroke-linecap:butt;stroke-linejoin:miter;stroke-miterlimit:10;stroke-dasharray:none"
           d="m 385.949,304.35 c -1.166,0.566 -2.116,1.117 -2.85,1.65 0.267,-1.101 0.533,-2.184 0.8,-3.25 0.967,-0.768 1.917,-1.316 2.851,-1.65 -0.268,1.099 -0.533,2.183 -0.801,3.25 z" /><path
           id="path96"
           transform="translate(-262.58,-236.9)"
           style="opacity:1;fill:#ffffff;fill-rule:evenodd;stroke:#000000;stroke-width:0.5;stroke-linecap:butt;stroke-linejoin:miter;stroke-miterlimit:10;stroke-dasharray:none"
           d="m 385.9,307.65 c 0.767,-0.768 1.733,-1.316 2.9,-1.65 -3.566,18.3 -9.967,36.8 -19.2,55.5 -1.9,3.267 -3.8,6.533 -5.7,9.8 -1.5,0.667 -3,1.333 -4.5,2 2.434,-4.134 4.883,-8.483 7.35,-13.05 8.033,-15.9 14.417,-33.434 19.15,-52.6 z" /><path
           id="path98"
           transform="translate(-262.5755,-236.9005)"
           style="opacity:1;fill:#ffffff;fill-rule:evenodd;stroke:#000000;stroke-width:0.5;stroke-linecap:butt;stroke-linejoin:miter;stroke-miterlimit:10;stroke-dasharray:none"
           d="m 385.15,307.6 c 0.267,-0.899 0.533,-1.982 0.8,-3.25 0.767,-0.766 1.717,-1.316 2.851,-1.649 -0.268,1.101 -0.533,2.183 -0.801,3.25 -0.934,0.766 -1.883,1.317 -2.85,1.649 z" /><path
           id="path100"
           transform="translate(-262.575,-236.9)"
           style="opacity:1;fill:#ffffff;fill-rule:evenodd;stroke:#000000;stroke-width:0.5;stroke-linecap:butt;stroke-linejoin:miter;stroke-miterlimit:10;stroke-dasharray:none"
           d="m 388.8,303.1 c -0.866,0.4 -1.95,0.816 -3.25,1.25 0.267,-1.1 0.533,-2.2 0.8,-3.3 0.967,-0.4 1.917,-0.8 2.85,-1.2 0.1,1.099 -0.034,2.183 -0.4,3.25 z" /><path
           id="path102"
           transform="translate(-262.5795,-236.9)"
           style="opacity:1;fill:#ffffff;fill-rule:evenodd;stroke:#000000;stroke-width:0.5;stroke-linecap:butt;stroke-linejoin:miter;stroke-miterlimit:10;stroke-dasharray:none"
           d="m 379.8,376.55 c 13.966,-4.833 28.933,-8.233 44.899,-10.2 -9.033,13.2 -19.1,24.767 -30.199,34.7 -22.566,20.033 -50.45,35.399 -83.65,46.1 -6.867,2.167 -13.117,3.934 -18.75,5.3 10.3,-6.732 21.75,-15.816 34.35,-27.25 12.566,-11.434 24.518,-25.199 35.851,-41.3 5.832,-2.867 11.666,-5.317 17.499,-7.35 z" /><path
           id="path104"
           transform="translate(-262.58,-236.9015)"
           style="opacity:1;fill:#ffffff;fill-rule:evenodd;stroke:#000000;stroke-width:0.5;stroke-linecap:butt;stroke-linejoin:miter;stroke-miterlimit:10;stroke-dasharray:none"
           d="m 423.45,366.35 c 1.233,-0.133 2.467,-0.266 3.7,-0.399 -9.4,14.2 -20.017,26.583 -31.85,37.149 -18.967,16.5 -38.551,28.867 -58.75,37.101 -20.2,8.267 -37.334,13.717 -51.4,16.351 2.166,-1.168 4.35,-2.533 6.55,-4.101 5.833,-1.567 12.083,-3.333 18.75,-5.3 33.4,-10.7 61.284,-26.066 83.65,-46.1 11.201,-9.934 20.984,-21.5 29.35,-34.701 z" /><path
           id="path106"
           transform="translate(-262.58,-236.89644)"
           style="opacity:1;fill:#ffffff;fill-rule:evenodd;stroke:#000000;stroke-width:0.5;stroke-linecap:butt;stroke-linejoin:miter;stroke-miterlimit:10;stroke-dasharray:none"
           d="m 395.75,403.1 c 11.834,-10.533 22.434,-22.916 31.801,-37.15 1.232,-0.332 2.467,-0.467 3.699,-0.399 -9.266,14 -20.55,27.183 -33.85,39.55 -13.966,12.299 -28.433,22.232 -43.4,29.799 -14.967,7.6 -29.066,13.399 -42.3,17.399 -13.234,4 -24.25,6.767 -33.05,8.3 2.1,-1.166 4.416,-2.517 6.95,-4.05 14.066,-2.634 31.2,-8.083 51.399,-16.351 C 357.2,431.967 376.783,419.6 395.75,403.1 Z" /><path
           id="path108"
           transform="translate(-262.5745,-236.9005)"
           style="opacity:1;fill:#ffffff;fill-rule:evenodd;stroke:#000000;stroke-width:0.5;stroke-linecap:butt;stroke-linejoin:miter;stroke-miterlimit:10;stroke-dasharray:none"
           d="m 426.3,363.5 c -0.667,0.967 -1.351,1.916 -2.05,2.85 -15.967,1.768 -30.917,5.167 -44.851,10.2 -5.866,2.034 -11.716,4.483 -17.55,7.351 0.267,-0.4 0.533,-0.816 0.8,-1.25 0.7,-0.934 1.384,-1.884 2.05,-2.851 4.634,-2.1 9.268,-4 13.9,-5.7 14.868,-5.367 30.767,-8.9 47.701,-10.6 z" /><path
           id="path110"
           transform="translate(-262.58,-236.90241)"
           style="opacity:1;fill:#ffffff;fill-rule:evenodd;stroke:#000000;stroke-width:0.5;stroke-linecap:butt;stroke-linejoin:miter;stroke-miterlimit:10;stroke-dasharray:none"
           d="m 427.95,365.949 c -1.267,0.334 -2.351,0.467 -3.25,0.4 0.667,-0.934 1.351,-1.883 2.05,-2.85 0.867,-0.134 1.95,-0.268 3.25,-0.4 -0.666,0.967 -1.35,1.917 -2.05,2.85 z" /><path
           id="path112"
           transform="translate(-262.58,-236.89631)"
           style="opacity:1;fill:#ffffff;fill-rule:evenodd;stroke:#000000;stroke-width:0.5;stroke-linecap:butt;stroke-linejoin:miter;stroke-miterlimit:10;stroke-dasharray:none"
           d="m 427.95,365.95 c 0.399,-0.733 1.217,-1.683 2.45,-2.851 0.9,-0.332 1.982,-0.467 3.25,-0.399 -0.667,0.967 -1.35,1.917 -2.051,2.851 -1.199,0.332 -2.415,0.467 -3.649,0.399 z" /><path
           id="path114"
           transform="translate(-262.5745,-236.9005)"
           style="opacity:1;fill:#ffffff;fill-rule:evenodd;stroke:#000000;stroke-width:0.5;stroke-linecap:butt;stroke-linejoin:miter;stroke-miterlimit:10;stroke-dasharray:none"
           d="m 428.4,360.65 c -0.667,0.967 -1.351,1.916 -2.051,2.85 -16.934,1.7 -32.85,5.234 -47.75,10.601 -4.6,1.7 -9.217,3.616 -13.85,5.75 0.8,-1.366 1.617,-2.733 2.45,-4.101 3.533,-1.366 7.066,-2.732 10.6,-4.1 17.267,-5.9 34.135,-9.566 50.601,-11 z" /><path
           id="path116"
           transform="translate(-262.58,-236.89659)"
           style="opacity:1;fill:#ffffff;fill-rule:evenodd;stroke:#000000;stroke-width:0.5;stroke-linecap:butt;stroke-linejoin:miter;stroke-miterlimit:10;stroke-dasharray:none"
           d="m 426.35,363.5 c 0.666,-0.934 1.35,-1.883 2.05,-2.85 0.866,-0.334 1.95,-0.467 3.25,-0.4 -0.667,0.967 -1.35,1.916 -2.05,2.85 -0.868,0.133 -1.951,0.267 -3.25,0.4 z" /><path
           id="path118"
           transform="translate(-262.58,-236.89659)"
           style="opacity:1;fill:#ffffff;fill-rule:evenodd;stroke:#000000;stroke-width:0.5;stroke-linecap:butt;stroke-linejoin:miter;stroke-miterlimit:10;stroke-dasharray:none"
           d="m 433.25,363.1 c -1.267,-0.066 -2.35,0.066 -3.25,0.4 0.666,-0.934 1.35,-1.883 2.05,-2.85 0.866,-0.334 1.95,-0.467 3.25,-0.4 -0.667,0.967 -1.35,1.916 -2.05,2.85 z" /><path
           id="path120"
           transform="translate(-262.575,-236.9055)"
           style="opacity:1;fill:#ffffff;fill-rule:evenodd;stroke:#000000;stroke-width:0.5;stroke-linecap:butt;stroke-linejoin:miter;stroke-miterlimit:10;stroke-dasharray:none"
           d="m 364.75,379.8 c -0.699,1.167 -1.383,2.116 -2.05,2.851 0.467,-0.801 0.733,-1.617 0.8,-2.451 0.434,-0.134 0.85,-0.266 1.25,-0.4 z" /><path
           id="path122"
           transform="translate(-262.58,-236.9)"
           style="opacity:1;fill:#ffffff;fill-rule:evenodd;stroke:#000000;stroke-width:0.5;stroke-linecap:butt;stroke-linejoin:miter;stroke-miterlimit:10;stroke-dasharray:none"
           d="m 363.5,380.25 c 0.266,-0.767 0.133,-1.717 -0.4,-2.85 1.367,-0.566 2.733,-1.117 4.1,-1.65 -0.833,1.367 -1.649,2.733 -2.449,4.1 -0.435,0.133 -0.852,0.267 -1.251,0.4 z" /><path
           id="path124"
           transform="translate(-262.575,-236.8955)"
           style="opacity:1;fill:#ffffff;fill-rule:evenodd;stroke:#000000;stroke-width:0.5;stroke-linecap:butt;stroke-linejoin:miter;stroke-miterlimit:10;stroke-dasharray:none"
           d="m 245.15,426.35 c -4.6,-9.467 -9.217,-20.35 -13.85,-32.649 3.2,6.2 6.2,12.183 9,17.95 l 1.6,4.1 z" /><path
           id="path126"
           transform="translate(-262.575,-236.8995)"
           style="opacity:1;fill:#ffffff;fill-rule:evenodd;stroke:#000000;stroke-width:0.5;stroke-linecap:butt;stroke-linejoin:miter;stroke-miterlimit:10;stroke-dasharray:none"
           d="m 240.7,411.25 c -2.8,-5.733 -5.8,-11.85 -9,-18.35 -1.2,-3.967 -2.417,-7.918 -3.65,-11.851 1.967,3.2 3.733,6.2 5.3,9 l 0.4,1.2 v 0.4 0.399 z" /><path
           id="path128"
           transform="translate(-262.575,-236.905)"
           style="opacity:1;fill:#ffffff;fill-rule:evenodd;stroke:#000000;stroke-width:0.5;stroke-linecap:butt;stroke-linejoin:miter;stroke-miterlimit:10;stroke-dasharray:none"
           d="m 228.85,394.5 c 7.4,13.267 12.983,25.5 16.75,36.7 v 2.05 C 240,422.584 234.417,409.666 228.85,394.5 Z" /><path
           id="path130"
           transform="translate(-262.58,-236.9055)"
           style="opacity:1;fill:#ffffff;fill-rule:evenodd;stroke:#000000;stroke-width:0.5;stroke-linecap:butt;stroke-linejoin:miter;stroke-miterlimit:10;stroke-dasharray:none"
           d="m 245.6,428.801 v 2.049 c -3.933,-11.232 -9.517,-23.482 -16.75,-36.75 -1.2,-3.6 -2.417,-7.399 -3.65,-11.399 2.033,3.533 4.067,7.067 6.1,10.601 4.233,12.433 8.867,23.449 13.9,33.049 z" /><path
           id="path132"
           transform="translate(-262.575,-236.9)"
           style="opacity:1;fill:#ffffff;fill-rule:evenodd;stroke:#000000;stroke-width:0.5;stroke-linecap:butt;stroke-linejoin:miter;stroke-miterlimit:10;stroke-dasharray:none"
           d="m 231.3,393.3 c -1.633,-3.333 -3.667,-6.884 -6.1,-10.65 -0.833,-2.833 -1.65,-5.683 -2.45,-8.55 1.633,2.434 3.267,4.883 4.9,7.35 1.233,4.133 2.45,8.083 3.65,11.85 z" /><path
           id="path134"
           transform="translate(-262.575,-236.9005)"
           style="opacity:1;fill:#ffffff;fill-rule:evenodd;stroke:#000000;stroke-width:0.5;stroke-linecap:butt;stroke-linejoin:miter;stroke-miterlimit:10;stroke-dasharray:none"
           d="m 241.5,430 c -6.733,-12.699 -12.85,-28.066 -18.35,-46.1 2.033,3.533 4.067,7.066 6.1,10.6 5.167,15.167 10.75,28.084 16.75,38.75 v 2.051 c -1.7,-1.567 -3.2,-3.334 -4.5,-5.301 z" /><path
           id="path136"
           transform="translate(-262.575,-236.9045)"
           style="opacity:1;fill:#ffffff;fill-rule:evenodd;stroke:#000000;stroke-width:0.5;stroke-linecap:butt;stroke-linejoin:miter;stroke-miterlimit:10;stroke-dasharray:none"
           d="m 225.2,382.699 c 1.233,4.134 2.45,8.066 3.65,11.801 -2.033,-3.5 -4.066,-7.033 -6.1,-10.601 -0.833,-2.833 -1.65,-5.683 -2.45,-8.55 1.633,2.434 3.266,4.883 4.9,7.35 z" /><path
           id="path138"
           transform="translate(-262.58,-236.9)"
           style="opacity:1;fill:#ffffff;fill-rule:evenodd;stroke:#000000;stroke-width:0.5;stroke-linecap:butt;stroke-linejoin:miter;stroke-miterlimit:10;stroke-dasharray:none"
           d="m 223.15,374.15 c 0.4,2.833 1.217,5.684 2.45,8.55 -1.633,-2.434 -3.267,-4.884 -4.9,-7.351 -0.133,-0.666 -0.267,-1.35 -0.4,-2.05 0.067,-0.134 0.333,-0.267 0.8,-0.399 0.267,-0.134 0.55,-0.268 0.85,-0.4 0.4,0.533 0.8,1.084 1.2,1.65 z" /><path
           id="path140"
           transform="translate(-262.575,-236.90482)"
           style="opacity:1;fill:#ffffff;fill-rule:evenodd;stroke:#000000;stroke-width:0.5;stroke-linecap:butt;stroke-linejoin:miter;stroke-miterlimit:10;stroke-dasharray:none"
           d="m 221.15,372.9 c -0.5,0.333 -0.783,0.467 -0.85,0.4 -0.466,-0.801 -0.733,-1.617 -0.8,-2.451 h 0.4 c 0.133,-0.332 0.267,-0.467 0.4,-0.399 0.567,0.467 1.117,1.149 1.65,2.05 -0.067,0.133 -0.333,0.268 -0.8,0.4 z" /><path
           id="path142"
           transform="translate(-262.575,-236.905)"
           style="opacity:1;fill:#ffffff;fill-rule:evenodd;stroke:#000000;stroke-width:0.5;stroke-linecap:butt;stroke-linejoin:miter;stroke-miterlimit:10;stroke-dasharray:none"
           d="m 220.3,370.45 c -0.066,-0.066 -0.35,0.067 -0.85,0.4 h -0.4 c -0.133,-0.833 -0.267,-1.65 -0.4,-2.45 0.733,0.467 1.283,1.151 1.65,2.05 z" /><path
           id="path144"
           transform="translate(-262.575,-236.9)"
           style="opacity:1;fill:#ffffff;fill-rule:evenodd;stroke:#000000;stroke-width:0.5;stroke-linecap:butt;stroke-linejoin:miter;stroke-miterlimit:10;stroke-dasharray:none"
           d="m 186.85,398.2 c 11.233,7.5 21.283,15.267 30.15,23.3 8.833,8.066 16.333,15.533 22.5,22.4 -7.7,-4.9 -16.117,-11.184 -25.25,-18.85 -9.167,-7.7 -18.3,-16.65 -27.4,-26.85 z" /><path
           id="path146"
           transform="translate(-262.575,-236.899)"
           style="opacity:1;fill:#ffffff;fill-rule:evenodd;stroke:#000000;stroke-width:0.5;stroke-linecap:butt;stroke-linejoin:miter;stroke-miterlimit:10;stroke-dasharray:none"
           d="m 216.95,421.399 c -8.8,-8.134 -18.833,-16.134 -30.1,-24 -2.1,-2 -4,-4.183 -5.7,-6.55 13.467,8.334 25.283,17.066 35.45,26.2 10.167,9.167 18.617,17.7 25.35,25.6 0.8,1.7 1.617,3.2 2.45,4.5 -1.767,-0.899 -3.533,-1.983 -5.3,-3.25 -5.967,-6.866 -13.35,-14.366 -22.15,-22.5 z" /><path
           id="path148"
           transform="translate(-262.58,-236.905)"
           style="opacity:1;fill:#ffffff;fill-rule:evenodd;stroke:#000000;stroke-width:0.5;stroke-linecap:butt;stroke-linejoin:miter;stroke-miterlimit:10;stroke-dasharray:none"
           d="m 216.6,417.449 c -10.167,-9.133 -21.983,-17.866 -35.45,-26.199 -1.7,-1.9 -3.2,-3.801 -4.5,-5.7 12.667,7.3 24.033,15.149 34.1,23.55 10.1,8.434 18.733,16.5 25.9,24.2 1.967,3.667 3.733,6.933 5.3,9.8 -6.767,-7.934 -15.217,-16.483 -25.35,-25.651 z" /><path
           id="path150"
           transform="translate(-262.58,-236.9)"
           style="opacity:1;fill:#ffffff;fill-rule:evenodd;stroke:#000000;stroke-width:0.5;stroke-linecap:butt;stroke-linejoin:miter;stroke-miterlimit:10;stroke-dasharray:none"
           d="m 246.8,448.75 c -0.833,-0.4 -1.65,-0.801 -2.45,-1.2 -0.833,-1.5 -1.65,-3 -2.45,-4.5 1.633,1.899 3.267,3.8 4.9,5.7 z" /><path
           id="path152"
           transform="translate(-262.58,-236.9)"
           style="opacity:1;fill:#ffffff;fill-rule:evenodd;stroke:#000000;stroke-width:0.5;stroke-linecap:butt;stroke-linejoin:miter;stroke-miterlimit:10;stroke-dasharray:none"
           d="m 246.8,448.75 c -1.3,-1.7 -2.8,-3.6 -4.5,-5.7 -1.767,-3.267 -3.533,-6.533 -5.3,-9.8 2.433,2.934 4.883,5.65 7.35,8.15 0.933,1.967 1.883,3.732 2.85,5.3 z" /><path
           id="path154"
           transform="translate(-262.575,-236.9)"
           style="opacity:1;fill:#ffffff;fill-rule:evenodd;stroke:#000000;stroke-width:0.5;stroke-linecap:butt;stroke-linejoin:miter;stroke-miterlimit:10;stroke-dasharray:none"
           d="m 247.2,445.1 -0.4,1.65 c -0.934,-1.767 -1.883,-3.533 -2.85,-5.3 1.3,1.234 2.383,2.45 3.25,3.65 z" /><path
           id="path156"
           transform="translate(-262.58,-236.904)"
           style="opacity:1;fill:#ffffff;fill-rule:evenodd;stroke:#000000;stroke-width:0.5;stroke-linecap:butt;stroke-linejoin:miter;stroke-miterlimit:10;stroke-dasharray:none"
           d="m 186.85,398.2 c 8.933,10.167 17.983,19.067 27.15,26.7 9.2,7.633 17.55,14.1 25.05,19.4 2.467,2.5 4.517,4.816 6.15,6.949 -8.667,-5.333 -18.9,-12.783 -30.7,-22.35 -11.833,-9.6 -23.5,-21.334 -35,-35.2 2.433,1.301 4.883,2.801 7.35,4.501 z" /><path
           id="path158"
           transform="translate(-262.575,-236.9)"
           style="opacity:1;fill:#ffffff;fill-rule:evenodd;stroke:#000000;stroke-width:0.5;stroke-linecap:butt;stroke-linejoin:miter;stroke-miterlimit:10;stroke-dasharray:none"
           d="m 181.1,391.199 c 1.7,2.4 3.617,4.584 5.75,6.551 -2.467,-1.5 -4.917,-3 -7.35,-4.5 -1.5,-1.9 -3,-3.801 -4.5,-5.7 2.033,1.233 4.067,2.45 6.1,3.649 z" /><path
           id="path160"
           transform="translate(-262.575,-236.905)"
           style="opacity:1;fill:#ffffff;fill-rule:evenodd;stroke:#000000;stroke-width:0.5;stroke-linecap:butt;stroke-linejoin:miter;stroke-miterlimit:10;stroke-dasharray:none"
           d="m 244.35,447.15 c 0.9,1.434 1.583,2.666 2.05,3.7 v 0.8 c -0.4,-0.267 -0.817,-0.533 -1.25,-0.8 -2.033,-2.134 -4.067,-4.45 -6.1,-6.95 1.967,1.1 3.733,2.184 5.3,3.25 z" /><path
           id="path162"
           transform="translate(-262.58,-236.9055)"
           style="opacity:1;fill:#ffffff;fill-rule:evenodd;stroke:#000000;stroke-width:0.5;stroke-linecap:butt;stroke-linejoin:miter;stroke-miterlimit:10;stroke-dasharray:none"
           d="m 181.15,391.25 c -2.033,-1.199 -4.083,-2.416 -6.15,-3.65 -1.2,-1.633 -2.417,-3.266 -3.65,-4.899 1.767,0.967 3.533,1.917 5.3,2.851 1.5,1.898 3,3.798 4.5,5.698 z" /><path
           id="path164"
           transform="translate(-262.575,-236.896)"
           style="opacity:1;fill:#ffffff;fill-rule:evenodd;stroke:#000000;stroke-width:0.5;stroke-linecap:butt;stroke-linejoin:miter;stroke-miterlimit:10;stroke-dasharray:none"
           d="m 246.4,450.801 c -0.466,-1 -1.15,-2.217 -2.05,-3.65 0.8,0.533 1.617,1.084 2.45,1.65 z" /><path
           id="path166"
           transform="translate(-262.575,-236.9045)"
           style="opacity:1;fill:#ffffff;fill-rule:evenodd;stroke:#000000;stroke-width:0.5;stroke-linecap:butt;stroke-linejoin:miter;stroke-miterlimit:10;stroke-dasharray:none"
           d="m 212.1,430 c -13.233,-10.834 -26.15,-24.301 -38.75,-40.4 2.033,1.233 4.067,2.45 6.1,3.65 11.333,14.1 22.95,25.934 34.85,35.5 11.9,9.6 22.183,16.949 30.85,22.05 0.4,0.399 0.817,0.8 1.25,1.2 l -0.45,2.449 C 236.617,448.949 225.333,440.8 212.1,430 Z" /><path
           id="path168"
           transform="translate(-262.58,-236.9)"
           style="opacity:1;fill:#ffffff;fill-rule:evenodd;stroke:#000000;stroke-width:0.5;stroke-linecap:butt;stroke-linejoin:miter;stroke-miterlimit:10;stroke-dasharray:none"
           d="m 245.2,451.2 c 0.4,0.067 0.8,0.333 1.2,0.8 v 0.4 c -0.4,-0.4 -0.8,-0.8 -1.2,-1.2 z" /><path
           id="path170"
           transform="translate(-262.58,-236.9055)"
           style="opacity:1;fill:#ffffff;fill-rule:evenodd;stroke:#000000;stroke-width:0.5;stroke-linecap:butt;stroke-linejoin:miter;stroke-miterlimit:10;stroke-dasharray:none"
           d="m 175,388 c 1.367,1.7 2.733,3.601 4.1,5.7 -2.033,-1.2 -4.083,-2.417 -6.15,-3.649 -1.2,-1.634 -2.417,-3.268 -3.65,-4.9 2.1,0.966 4,1.915 5.7,2.849 z" /><path
           id="path172"
           transform="translate(-262.58,-236.8995)"
           style="opacity:1;fill:#ffffff;fill-rule:evenodd;stroke:#000000;stroke-width:0.5;stroke-linecap:butt;stroke-linejoin:miter;stroke-miterlimit:10;stroke-dasharray:none"
           d="m 171.35,382.7 c 1.133,1.634 2.483,3.267 4.05,4.899 -1.9,-0.967 -3.8,-1.916 -5.7,-2.85 0,-0.367 0,-0.5 0,-0.4 0.067,-0.066 0.333,-0.35 0.8,-0.85 0.067,-0.065 0.35,-0.332 0.85,-0.799 z" /><path
           id="path174"
           transform="translate(-262.575,-236.905)"
           style="opacity:1;fill:#ffffff;fill-rule:evenodd;stroke:#000000;stroke-width:0.5;stroke-linecap:butt;stroke-linejoin:miter;stroke-miterlimit:10;stroke-dasharray:none"
           d="m 170.5,383.9 c -0.467,0.133 -0.733,0.267 -0.8,0.4 -0.566,-0.467 -1.117,-1.15 -1.65,-2.051 l 0.4,-0.4 c 0.333,-0.133 0.467,-0.266 0.4,-0.399 0.833,0.399 1.65,0.817 2.45,1.25 -0.267,0.4 -0.533,0.8 -0.8,1.2 z" /><path
           id="path176"
           transform="translate(-262.57321,-236.904)"
           style="opacity:1;fill:#ffffff;fill-rule:evenodd;stroke:#000000;stroke-width:0.5;stroke-linecap:butt;stroke-linejoin:miter;stroke-miterlimit:10;stroke-dasharray:none"
           d="m 168.5,381.45 c 0.066,0.134 -0.067,0.283 -0.4,0.45 l -0.4,0.399 c -0.767,-0.466 -1.316,-1.149 -1.65,-2.05 0.8,0.401 1.617,0.801 2.45,1.201 z" /><path
           id="path178"
           transform="translate(-262.5795,-236.9)"
           style="opacity:1;fill:#ffffff;fill-rule:evenodd;stroke:#000000;stroke-width:0.5;stroke-linecap:butt;stroke-linejoin:miter;stroke-miterlimit:10;stroke-dasharray:none"
           d="m 271.7,436.1 v -1.2 c 4.366,-13.466 11.167,-28.566 20.399,-45.3 -2.232,7.066 -4.683,13.733 -7.35,20 -1.633,3.666 -3.267,7.334 -4.9,11 -2.932,5.799 -5.649,10.966 -8.149,15.5 z" /><path
           id="path180"
           transform="translate(-262.5755,-236.905)"
           style="opacity:1;fill:#ffffff;fill-rule:evenodd;stroke:#000000;stroke-width:0.5;stroke-linecap:butt;stroke-linejoin:miter;stroke-miterlimit:10;stroke-dasharray:none"
           d="m 286.35,411.25 c -1.199,3.267 -2.416,6.117 -3.649,8.55 1.233,-2.833 2.449,-5.683 3.649,-8.55 z" /><path
           id="path182"
           transform="translate(-262.5755,-236.9)"
           style="opacity:1;fill:#ffffff;fill-rule:evenodd;stroke:#000000;stroke-width:0.5;stroke-linecap:butt;stroke-linejoin:miter;stroke-miterlimit:10;stroke-dasharray:none"
           d="m 279.45,420.2 c 1.566,-3.467 3.333,-7.134 5.3,-11 2.834,-6.2 6.1,-12.601 9.8,-19.2 -2.733,7.467 -5.466,14.533 -8.2,21.2 -1.199,2.866 -2.416,5.733 -3.649,8.6 -3.601,7.667 -7,14.333 -10.2,20 v -0.85 c 1.699,-5.634 4.016,-11.884 6.949,-18.75 z" /><path
           id="path184"
           transform="translate(-262.575,-236.8995)"
           style="opacity:1;fill:#ffffff;fill-rule:evenodd;stroke:#000000;stroke-width:0.5;stroke-linecap:butt;stroke-linejoin:miter;stroke-miterlimit:10;stroke-dasharray:none"
           d="m 294.55,390 c -3.667,6.6 -6.933,13 -9.8,19.199 2.434,-6.266 4.883,-12.933 7.35,-20 1.9,-3.133 3.801,-6.266 5.7,-9.399 -1.1,3.399 -2.183,6.8 -3.25,10.2 z" /><path
           id="path186"
           transform="translate(-262.5745,-236.905)"
           style="opacity:1;fill:#ffffff;fill-rule:evenodd;stroke:#000000;stroke-width:0.5;stroke-linecap:butt;stroke-linejoin:miter;stroke-miterlimit:10;stroke-dasharray:none"
           d="m 272.5,437.75 -1.2,-0.4 v -1.25 c 2.733,-4.566 5.45,-9.733 8.149,-15.5 -2.699,6.867 -5.016,13.117 -6.949,18.75 v -0.4 z" /><path
           id="path188"
           transform="translate(-262.579,-236.9)"
           style="opacity:1;fill:#ffffff;fill-rule:evenodd;stroke:#000000;stroke-width:0.5;stroke-linecap:butt;stroke-linejoin:miter;stroke-miterlimit:10;stroke-dasharray:none"
           d="m 282.75,420.2 c 1.232,-2.767 2.449,-5.75 3.65,-8.95 2.799,-6.467 6.199,-13.133 10.199,-20 -5.833,17.7 -12.083,32.517 -18.75,44.45 -0.699,0.833 -1.383,1.649 -2.05,2.45 1.9,-5.367 4.218,-11.35 6.951,-17.95 z" /><path
           id="path190"
           transform="translate(-262.58,-236.9)"
           style="opacity:1;fill:#ffffff;fill-rule:evenodd;stroke:#000000;stroke-width:0.5;stroke-linecap:butt;stroke-linejoin:miter;stroke-miterlimit:10;stroke-dasharray:none"
           d="m 272.5,441 v -1.2 c 3.4,-5.866 6.8,-12.533 10.2,-20 -2.733,6.601 -5.05,12.583 -6.95,17.95 -1.066,1.232 -2.15,2.449 -3.25,3.65 z" /><path
           id="path192"
           transform="translate(-262.5775,-236.9005)"
           style="opacity:1;fill:#ffffff;fill-rule:evenodd;stroke:#000000;stroke-width:0.5;stroke-linecap:butt;stroke-linejoin:miter;stroke-miterlimit:10;stroke-dasharray:none"
           d="m 287.525,408.75 c 2.527,-5.778 4.734,-12.012 6.625,-18.699 1.9,-3.134 3.8,-6.268 5.7,-9.4 -1.067,3.733 -2.15,7.267 -3.25,10.6 -3.325,5.833 -6.35,11.666 -9.075,17.499 z" /><path
           id="path194"
           transform="translate(-262.576,-236.905)"
           style="opacity:1;fill:#ffffff;fill-rule:evenodd;stroke:#000000;stroke-width:0.5;stroke-linecap:butt;stroke-linejoin:miter;stroke-miterlimit:10;stroke-dasharray:none"
           d="m 299.851,377.75 c 0.466,0 0.75,0 0.85,0 -0.3,0.967 -0.583,1.916 -0.85,2.85 -2.101,3.133 -4,6.267 -5.7,9.4 1.3,-3.2 2.383,-6.601 3.25,-10.2 0.566,-0.8 1.117,-1.616 1.65,-2.45 0.265,0.132 0.533,0.266 0.8,0.4 z" /><path
           id="path196"
           transform="translate(-262.5745,-236.9045)"
           style="opacity:1;fill:#ffffff;fill-rule:evenodd;stroke:#000000;stroke-width:0.5;stroke-linecap:butt;stroke-linejoin:miter;stroke-miterlimit:10;stroke-dasharray:none"
           d="m 299.85,377.8 c -0.066,-0.4 -0.333,-0.4 -0.8,0 0.733,-0.833 1.283,-1.65 1.649,-2.45 0.134,0.334 0.268,0.467 0.4,0.4 h 0.4 c -0.268,0.833 -0.533,1.649 -0.801,2.449 -0.264,-0.333 -0.548,-0.467 -0.848,-0.399 z" /><path
           id="path198"
           transform="translate(-262.576,-236.896)"
           style="opacity:1;fill:#ffffff;fill-rule:evenodd;stroke:#000000;stroke-width:0.5;stroke-linecap:butt;stroke-linejoin:miter;stroke-miterlimit:10;stroke-dasharray:none"
           d="m 301.45,375.351 c -0.134,0 -0.267,0 -0.399,0 -0.134,-0.333 -0.268,-0.467 -0.4,-0.4 0.733,-0.5 1.283,-1.183 1.65,-2.05 -0.268,0.799 -0.551,1.617 -0.851,2.45 z" /><path
           id="path200"
           transform="translate(-262.575,-236.9)"
           style="opacity:1;fill:#ffffff;fill-rule:evenodd;stroke:#000000;stroke-width:0.5;stroke-linecap:butt;stroke-linejoin:miter;stroke-miterlimit:10;stroke-dasharray:none"
           d="m 284.35,444.65 c 5.934,-7.066 13.434,-14.734 22.5,-23 9.033,-8.234 19.483,-16.2 31.35,-23.9 -9.333,10.6 -18.717,19.8 -28.149,27.6 -9.435,7.8 -18.001,14.234 -25.701,19.3 z" /><path
           id="path202"
           transform="translate(-262.5795,-236.9045)"
           style="opacity:1;fill:#ffffff;fill-rule:evenodd;stroke:#000000;stroke-width:0.5;stroke-linecap:butt;stroke-linejoin:miter;stroke-miterlimit:10;stroke-dasharray:none"
           d="m 343.5,391.25 c -1.768,2.166 -3.533,4.35 -5.301,6.55 -11.866,7.667 -22.316,15.634 -31.35,23.9 -9.066,8.267 -16.566,15.933 -22.5,23 -2.8,1.634 -5.383,3.267 -7.75,4.899 6.367,-8.066 15.166,-17.434 26.4,-28.1 11.267,-10.665 24.767,-20.749 40.501,-30.249 z" /><path
           id="path204"
           transform="translate(-262.5805,-236.9045)"
           style="opacity:1;fill:#ffffff;fill-rule:evenodd;stroke:#000000;stroke-width:0.5;stroke-linecap:butt;stroke-linejoin:miter;stroke-miterlimit:10;stroke-dasharray:none"
           d="m 348,385.15 c -1.5,2.1 -3,4 -4.5,5.7 -15.732,9.667 -29.217,19.8 -40.449,30.399 -11.268,10.601 -20.084,19.917 -26.451,27.95 l -0.399,0.4 c 1.833,-3.267 3.866,-6.934 6.101,-11 7.366,-8.167 16.533,-17.017 27.5,-26.55 C 320.768,402.484 333.5,393.518 348,385.15 Z" /><path
           id="path206"
           transform="translate(-262.5795,-236.9045)"
           style="opacity:1;fill:#ffffff;fill-rule:evenodd;stroke:#000000;stroke-width:0.5;stroke-linecap:butt;stroke-linejoin:miter;stroke-miterlimit:10;stroke-dasharray:none"
           d="m 272.95,451.199 v -1.25 c 0,-0.332 0,-0.467 0,-0.399 2.5,-3.267 5.634,-6.933 9.399,-11 -2.033,4.067 -4.082,7.733 -6.149,11 -1.067,0.766 -2.149,1.317 -3.25,1.649 z" /><path
           id="path208"
           transform="translate(-262.571,-236.905)"
           style="opacity:1;fill:#ffffff;fill-rule:evenodd;stroke:#000000;stroke-width:0.5;stroke-linecap:butt;stroke-linejoin:miter;stroke-miterlimit:10;stroke-dasharray:none"
           d="m 338.2,397.8 c 2.467,-1.5 4.917,-3 7.351,-4.5 -11.734,14.267 -23.65,26.233 -35.75,35.899 -12.101,9.668 -22.484,17.15 -31.15,22.451 1.7,-2.101 3.6,-4.418 5.7,-6.951 7.7,-5.1 16.267,-11.533 25.7,-19.299 9.433,-7.8 18.816,-17 28.149,-27.6 z" /><path
           id="path210"
           transform="translate(-262.5755,-236.901)"
           style="opacity:1;fill:#ffffff;fill-rule:evenodd;stroke:#000000;stroke-width:0.5;stroke-linecap:butt;stroke-linejoin:miter;stroke-miterlimit:10;stroke-dasharray:none"
           d="m 343.5,390.801 c 1.967,-1 4.15,-2.217 6.551,-3.65 -1.5,2.1 -3,4 -4.5,5.7 -2.467,1.5 -4.918,3 -7.351,4.5 1.767,-2.167 3.533,-4.351 5.3,-6.55 z" /><path
           id="path212"
           transform="translate(-262.5705,-236.901)"
           style="opacity:1;fill:#ffffff;fill-rule:evenodd;stroke:#000000;stroke-width:0.5;stroke-linecap:butt;stroke-linejoin:miter;stroke-miterlimit:10;stroke-dasharray:none"
           d="m 276.6,449.6 c 2.467,-1.633 4.916,-3.266 7.35,-4.899 -2.1,2.5 -4,4.817 -5.699,6.95 -1.634,1.133 -3.268,2.083 -4.9,2.85 v -0.4 c 0.533,-1.166 1.084,-2.116 1.65,-2.85 0.731,-0.567 1.265,-1.118 1.599,-1.651 z" /><path
           id="path214"
           transform="translate(-262.575,-236.905)"
           style="opacity:1;fill:#ffffff;fill-rule:evenodd;stroke:#000000;stroke-width:0.5;stroke-linecap:butt;stroke-linejoin:miter;stroke-miterlimit:10;stroke-dasharray:none"
           d="m 275.4,451.25 c 0,-0.434 0.4,-0.851 1.2,-1.25 l 0.45,-0.4 c -0.767,0.533 -1.316,1.084 -1.65,1.65 z" /><path
           id="path216"
           transform="translate(-262.58,-236.905)"
           style="opacity:1;fill:#ffffff;fill-rule:evenodd;stroke:#000000;stroke-width:0.5;stroke-linecap:butt;stroke-linejoin:miter;stroke-miterlimit:10;stroke-dasharray:none"
           d="m 349.6,387.6 c -2.033,1.033 -4.066,2.25 -6.1,3.65 1.7,-1.9 3.2,-3.8 4.5,-5.699 1.767,-0.934 3.533,-1.884 5.3,-2.851 -1.234,1.634 -2.466,3.267 -3.7,4.9 z" /><path
           id="path218"
           transform="translate(-262.575,-236.9055)"
           style="opacity:1;fill:#ffffff;fill-rule:evenodd;stroke:#000000;stroke-width:0.5;stroke-linecap:butt;stroke-linejoin:miter;stroke-miterlimit:10;stroke-dasharray:none"
           d="m 273.75,454.051 v -0.801 c 0.533,-0.5 1.084,-1.184 1.65,-2.05 -0.566,1.167 -1.117,2.116 -1.65,2.851 z" /><path
           id="path220"
           transform="translate(-262.5755,-236.905)"
           style="opacity:1;fill:#ffffff;fill-rule:evenodd;stroke:#000000;stroke-width:0.5;stroke-linecap:butt;stroke-linejoin:miter;stroke-miterlimit:10;stroke-dasharray:none"
           d="m 272.95,451.65 c 1.167,-0.566 2.116,-1.117 2.851,-1.65 -0.268,0.4 -0.533,0.816 -0.801,1.25 -0.566,0.467 -1.117,1.133 -1.65,2 z" /><path
           id="path222"
           transform="translate(-262.571,-236.9)"
           style="opacity:1;fill:#ffffff;fill-rule:evenodd;stroke:#000000;stroke-width:0.5;stroke-linecap:butt;stroke-linejoin:miter;stroke-miterlimit:10;stroke-dasharray:none"
           d="m 345.551,393.25 c 2.033,-1.2 4.066,-2.417 6.1,-3.65 -13.066,16.733 -26.483,30.6 -40.25,41.6 -13.733,11.033 -25.2,19.2 -34.4,24.5 -0.699,0.134 -1.383,0.268 -2.05,0.4 1.233,-1.3 2.45,-2.8 3.649,-4.5 8.701,-5.1 19.101,-12.517 31.201,-22.25 12.099,-9.767 24.015,-21.8 35.75,-36.1 z" /><path
           id="path224"
           transform="translate(-262.575,-236.90098)"
           style="opacity:1;fill:#ffffff;fill-rule:evenodd;stroke:#000000;stroke-width:0.5;stroke-linecap:butt;stroke-linejoin:miter;stroke-miterlimit:10;stroke-dasharray:none"
           d="m 274.15,456.5 c 0.334,-0.066 0.467,-0.334 0.4,-0.801 0.699,-0.133 1.383,-0.266 2.05,-0.399 -0.832,0.833 -1.65,1.233 -2.45,1.2 z" /><path
           id="path226"
           transform="translate(-262.58,-236.9045)"
           style="opacity:1;fill:#ffffff;fill-rule:evenodd;stroke:#000000;stroke-width:0.5;stroke-linecap:butt;stroke-linejoin:miter;stroke-miterlimit:10;stroke-dasharray:none"
           d="m 349.65,387.551 c 1.967,-1.168 3.733,-2.117 5.3,-2.851 -1.233,1.634 -2.466,3.267 -3.7,4.899 -2.033,1.234 -4.066,2.451 -6.1,3.65 1.701,-1.899 3.201,-3.799 4.5,-5.698 z" /><path
           id="path228"
           transform="translate(-262.58,-236.9)"
           style="opacity:1;fill:#ffffff;fill-rule:evenodd;stroke:#000000;stroke-width:0.5;stroke-linecap:butt;stroke-linejoin:miter;stroke-miterlimit:10;stroke-dasharray:none"
           d="m 274.15,456.15 -0.4,-1.65 c 1.633,-0.732 3.267,-1.684 4.9,-2.85 -1.234,1.7 -2.467,3.2 -3.7,4.5 -0.266,0 -0.534,0 -0.8,0 z" /><path
           id="path230"
           transform="translate(-262.58,-236.9)"
           style="opacity:1;fill:#ffffff;fill-rule:evenodd;stroke:#000000;stroke-width:0.5;stroke-linecap:butt;stroke-linejoin:miter;stroke-miterlimit:10;stroke-dasharray:none"
           d="m 274.15,456.5 -0.4,-0.8 c 0.267,0 0.533,0 0.8,0 -0.134,0.267 -0.267,0.533 -0.4,0.8 z" /><path
           id="path232"
           transform="translate(-262.58,-236.9)"
           style="opacity:1;fill:#ffffff;fill-rule:evenodd;stroke:#000000;stroke-width:0.5;stroke-linecap:butt;stroke-linejoin:miter;stroke-miterlimit:10;stroke-dasharray:none"
           d="m 354.95,384.7 c -1.566,0.8 -3.333,1.616 -5.3,2.45 1.233,-1.634 2.45,-3.268 3.65,-4.9 0.3,0.4 0.583,0.8 0.85,1.2 0.267,0.433 0.534,0.85 0.8,1.25 z" /><path
           id="path234"
           transform="translate(-262.5745,-236.905)"
           style="opacity:1;fill:#ffffff;fill-rule:evenodd;stroke:#000000;stroke-width:0.5;stroke-linecap:butt;stroke-linejoin:miter;stroke-miterlimit:10;stroke-dasharray:none"
           d="m 354.1,383.5 c -0.066,-0.5 -0.333,-0.767 -0.8,-0.8 0.8,-0.433 1.616,-0.851 2.45,-1.25 l 0.4,0.399 0.399,0.4 c -0.533,0.5 -1.067,1.184 -1.601,2.051 -0.065,-0.067 -0.348,-0.333 -0.848,-0.8 z" /><path
           id="path236"
           transform="translate(-262.57759,-236.8955)"
           style="opacity:1;fill:#ffffff;fill-rule:evenodd;stroke:#000000;stroke-width:0.5;stroke-linecap:butt;stroke-linejoin:miter;stroke-miterlimit:10;stroke-dasharray:none"
           d="m 356.95,382.3 c -0.333,-0.333 -0.466,-0.466 -0.399,-0.399 -0.334,-0.134 -0.467,-0.283 -0.4,-0.45 0.834,-0.4 1.65,-0.8 2.45,-1.2 -0.734,0.466 -1.285,1.149 -1.651,2.049 z" /><path
           id="path238"
           transform="translate(-262.575,-236.9)"
           style="opacity:1;fill:#ffffff;fill-rule:evenodd;stroke:#000000;stroke-width:0.5;stroke-linecap:butt;stroke-linejoin:miter;stroke-miterlimit:10;stroke-dasharray:none"
           d="m 221.55,270.05 -0.4,11 c -0.566,-0.667 -1.117,-1.333 -1.65,-2 0.467,-3.2 1.15,-6.2 2.05,-9 z" /><path
           id="path240"
           transform="translate(-262.57368,-236.9015)"
           style="opacity:1;fill:#ffffff;fill-rule:evenodd;stroke:#000000;stroke-width:0.5;stroke-linecap:butt;stroke-linejoin:miter;stroke-miterlimit:10;stroke-dasharray:none"
           d="m 212.95,280.25 c -0.267,1.5 -0.55,3 -0.85,4.5 -2.767,13.4 -4.117,26.584 -4.05,39.551 0.133,7.832 0.667,15.866 1.6,24.1 -5.367,-6.134 -10.933,-11.85 -16.7,-17.15 -15.8,-14.367 -34.433,-26.467 -55.9,-36.3 -1.1,-0.767 -2.183,-1.317 -3.25,-1.649 -2.9,-21.934 -3.867,-40.067 -2.9,-54.4 1,-14.333 1.683,-21.767 2.05,-22.3 0.333,0 4.583,2.35 12.75,7.05 8.2,4.733 18.383,11.817 30.55,21.25 12.167,9.432 24.4,21.215 36.7,35.348 z" /><path
           id="path242"
           transform="translate(-262.575,-236.9)"
           style="opacity:1;fill:#ffffff;fill-rule:evenodd;stroke:#000000;stroke-width:0.5;stroke-linecap:butt;stroke-linejoin:miter;stroke-miterlimit:10;stroke-dasharray:none"
           d="m 212.55,284.75 c 0,-1.5 0.4,-3 1.2,-4.5 0.066,0.4 0.35,0.8 0.85,1.2 -1.1,0.9 -1.784,2 -2.05,3.3 z" /><path
           id="path244"
           transform="translate(-262.57904,-236.9045)"
           style="opacity:1;fill:#ffffff;fill-rule:evenodd;stroke:#000000;stroke-width:0.5;stroke-linecap:butt;stroke-linejoin:miter;stroke-miterlimit:10;stroke-dasharray:none"
           d="m 373.55,225.35 c 10.733,-6.367 16.35,-9.55 16.85,-9.55 0.4,0.533 1.15,7.967 2.25,22.3 1.101,14.334 0.217,32.467 -2.649,54.4 -1.101,0.732 -2.184,1.283 -3.25,1.65 -21.634,9.866 -40.4,21.967 -56.301,36.299 -6.934,6.033 -13.467,12.701 -19.6,20 1.3,-8.967 1.983,-17.949 2.05,-26.949 -0.134,-3.268 -0.267,-6.533 -0.399,-9.801 l 7.75,-2.449 8.55,-1.6 h 0.399 0.4 l 4.1,-1.25 h 0.4 0.4 l 9.399,-3.65 10.2,-2.45 h 0.4 0.399 l 4.9,-2.05 0.8,-0.4 0.45,-0.4 c 5.899,-4.732 9.384,-9.033 10.45,-12.899 1.066,-3.866 0.982,-7.05 -0.25,-9.55 -1.167,-3.268 -2.75,-6.1 -4.75,-8.5 -2.033,-2.434 -4.95,-4.367 -8.75,-5.801 -0.367,-0.033 -2.75,-0.85 -7.15,-2.449 -4.367,-1.566 -9.6,-3.6 -15.7,-6.1 15.001,-12.835 27.885,-22.435 38.652,-28.801 z" /><path
           id="path246"
           transform="translate(-262.58,-236.90247)"
           style="opacity:1;fill:#ffffff;fill-rule:evenodd;stroke:#000000;stroke-width:0.5;stroke-linecap:butt;stroke-linejoin:miter;stroke-miterlimit:10;stroke-dasharray:none"
           d="m 244.4,465.9 0.4,0.8 c -13.6,3.333 -32.1,5.233 -55.5,5.7 -23.466,0.633 -48.35,-3.434 -74.65,-12.2 C 96.55,453.4 80.417,444.967 66.25,434.9 52.083,424.833 40.083,414.766 30.25,404.7 20.383,394.633 12.883,386.2 7.75,379.4 2.617,372.6 0.033,369.066 0,368.8 c 0.433,-0.399 7.25,-2.033 20.45,-4.899 13.233,-2.867 30.35,-4.5 51.35,-4.9 3.333,0.133 6.867,0.267 10.6,0.4 0.7,1.1 1.383,2.184 2.05,3.25 11.167,17.633 23.95,33.016 38.35,46.149 15.434,13.534 31.2,24.25 47.3,32.15 16.1,7.899 30.533,13.634 43.3,17.2 12.367,3.8 22.7,6.383 31,7.75 z" /><path
           id="path248"
           transform="translate(-262.57823,-236.89562)"
           style="opacity:1;fill:#ffffff;fill-rule:evenodd;stroke:#000000;stroke-width:0.5;stroke-linecap:butt;stroke-linejoin:miter;stroke-miterlimit:10;stroke-dasharray:none"
           d="m 150.1,364.299 c 0.833,1.367 1.65,2.734 2.45,4.101 -1.5,-0.567 -3,-1.116 -4.5,-1.649 -17.933,-6.533 -37.517,-10.617 -58.75,-12.25 -1.2,0 -2.417,0 -3.65,0 -7.833,-13.533 -13.983,-26.117 -18.45,-37.75 -4.467,-11.634 -7.633,-21.051 -9.5,-28.25 -1.833,-7.201 -2.717,-10.9 -2.65,-11.101 0.6,-0.233 7.967,0.95 22.1,3.55 14.1,2.633 31.35,8.117 51.75,16.45 -0.067,1.233 0.066,2.45 0.4,3.649 4.1,23.134 11.033,44.217 20.8,63.25 z" /><path
           id="path250"
           transform="translate(-262.58033,-236.905)"
           style="opacity:1;fill:#ffffff;fill-rule:evenodd;stroke:#000000;stroke-width:0.5;stroke-linecap:butt;stroke-linejoin:miter;stroke-miterlimit:10;stroke-dasharray:none"
           d="m 129.3,297 c 0.067,0.133 0.333,0.267 0.8,0.4 -0.333,1.1 -0.466,2.184 -0.4,3.25 -0.333,-1.2 -0.467,-2.417 -0.4,-3.65 z" /><path
           id="path252"
           transform="translate(-262.575,-236.9)"
           style="opacity:1;fill:#ffffff;fill-rule:evenodd;stroke:#000000;stroke-width:0.5;stroke-linecap:butt;stroke-linejoin:miter;stroke-miterlimit:10;stroke-dasharray:none"
           d="m 89.3,354.55 c -1.267,0.067 -2.35,0.333 -3.25,0.8 -0.133,-0.066 -0.267,-0.333 -0.4,-0.8 1.233,0 2.45,0 3.65,0 z" /><path
           id="path254"
           transform="translate(-262.576,-236.89789)"
           style="opacity:1;fill:#ffffff;fill-rule:evenodd;stroke:#000000;stroke-width:0.5;stroke-linecap:butt;stroke-linejoin:miter;stroke-miterlimit:10;stroke-dasharray:none"
           d="m 516.9,379.801 c -5.133,6.8 -12.633,15.232 -22.5,25.3 -9.834,10.066 -21.834,20.134 -36,30.2 -14.166,10.066 -30.3,18.5 -48.4,25.3 -12.934,4.6 -25.732,7.8 -38.399,9.6 -12.667,1.833 -24.75,2.7 -36.25,2.601 -12.333,-0.066 -23.467,-0.717 -33.4,-1.95 -9.933,-1.267 -18.116,-2.65 -24.55,-4.15 8.7,-1.399 19.934,-4.1 33.7,-8.1 13.767,-4.034 28.566,-10 44.399,-17.9 15.834,-7.933 31.15,-18.433 45.95,-31.5 14.134,-13.134 27.05,-28.517 38.75,-46.149 0.667,-1.066 1.351,-2.15 2.05,-3.25 3.533,-0.334 7.066,-0.467 10.601,-0.4 21,0.4 38.116,2.033 51.35,4.9 13.2,2.866 20.017,4.5 20.45,4.899 -0.034,0.265 -2.618,3.798 -7.751,10.599 z" /><path
           id="path256"
           transform="translate(-262.57172,-236.90482)"
           style="opacity:1;fill:#ffffff;fill-rule:evenodd;stroke:#000000;stroke-width:0.5;stroke-linecap:butt;stroke-linejoin:miter;stroke-miterlimit:10;stroke-dasharray:none"
           d="m 469.15,277.8 c 0.066,0.2 -0.817,3.899 -2.65,11.101 -1.867,7.199 -5.033,16.616 -9.5,28.25 -4.467,11.633 -10.617,24.217 -18.45,37.75 -1.233,0 -2.45,0 -3.649,0 -21.033,1.299 -40.617,5.25 -58.75,11.85 -1.367,0.533 -2.734,1.083 -4.101,1.65 0.467,-1.367 1.149,-2.734 2.05,-4.101 9.801,-19.3 16.733,-40.25 20.801,-62.851 0.133,-1.199 0.266,-2.416 0.399,-3.649 20.399,-8.333 37.649,-13.817 51.75,-16.45 14.134,-2.6 21.5,-3.784 22.1,-3.55 z" /><path
           id="path258"
           transform="translate(-262.58,-236.905)"
           style="opacity:1;fill:#ffffff;fill-rule:evenodd;stroke:#000000;stroke-width:0.5;stroke-linecap:butt;stroke-linejoin:miter;stroke-miterlimit:10;stroke-dasharray:none"
           d="m 394.9,300.65 c 0.066,-1.066 -0.066,-2.15 -0.4,-3.25 0.066,-0.134 0.334,-0.268 0.8,-0.4 0.067,1.233 -0.067,2.45 -0.4,3.65 z" /><path
           id="path260"
           transform="translate(-262.575,-236.9)"
           style="opacity:1;fill:#ffffff;fill-rule:evenodd;stroke:#000000;stroke-width:0.5;stroke-linecap:butt;stroke-linejoin:miter;stroke-miterlimit:10;stroke-dasharray:none"
           d="m 434.9,354.55 c 1.3,0 2.383,0 3.25,0 -0.133,0.067 -0.267,0.333 -0.4,0.8 -0.934,-0.467 -1.883,-0.733 -2.85,-0.8 z" /><path
           id="path262"
           transform="translate(-262.5795,-236.9)"
           style="opacity:1;fill:#ffffff;fill-rule:evenodd;stroke:#000000;stroke-width:0.5;stroke-linecap:butt;stroke-linejoin:miter;stroke-miterlimit:10;stroke-dasharray:none"
           d="m 266.399,296.55 v -0.399 -0.4 l -0.8,-6.55 v -0.4 -0.401 l 2.45,-0.4 c 2.8,1.5 7.417,3 13.85,4.5 0.967,0.066 2.333,0.334 4.101,0.8 -4.334,3.333 -7.467,6.05 -9.4,8.15 l -4.9,2.05 -1.6,0.4 -3.7,-0.4 v -6.95 z" /><path
           id="path264"
           transform="translate(-262.57076,-236.9005)"
           style="opacity:1;fill:#ffffff;fill-rule:evenodd;stroke:#000000;stroke-width:0.5;stroke-linecap:butt;stroke-linejoin:miter;stroke-miterlimit:10;stroke-dasharray:none"
           d="m 258.2,336.2 c 1.233,-0.4 1.65,-3.667 1.25,-9.8 v -0.8 z m 46.55,-47.75 c -0.834,0 -1.65,0 -2.45,0 -0.3,0 -0.583,0 -0.851,0 -0.666,0 -1.35,0 -2.049,0 -0.4,0 -0.801,0 -1.201,0 -6.266,-0.2 -11.299,-0.601 -15.1,-1.2 -4.333,-0.934 -7.783,-1.967 -10.35,-3.1 -2.566,-1.101 -3.883,-1.7 -3.95,-1.801 l -6.101,1.2 h -2.449 l -0.8,1.65 v 0.8 l 0.8,3.7 0.8,5.7 v 13.449 h 0.45 l 1.199,-0.8 1.65,-0.399 6.1,0.399 2.851,-0.399 6.149,-2.45 c 0.201,-0.267 1.817,-1.784 4.851,-4.55 3.067,-2.768 6.333,-5.2 9.8,-7.301 1.301,-0.399 2.4,-0.8 3.301,-1.199 0.399,-0.367 0.799,-0.518 1.199,-0.45 0.533,-0.134 1.084,-0.267 1.65,-0.4 0.8,-0.134 1.617,-0.267 2.449,-0.399 0.334,0 0.467,0 0.4,0 0.801,-0.134 1.617,-0.268 2.45,-0.4 0.8,-0.133 1.616,-0.267 2.45,-0.4 0.666,-0.133 1.35,-0.266 2.05,-0.399 h 0.399 c 4,-0.833 6.168,-1.25 6.5,-1.25 -0.332,0 -2.5,0 -6.5,0 -0.699,0 -1.383,0 -2.049,0 -0.268,0 -0.533,0 -0.801,0 -0.964,-0.001 -1.913,-0.001 -2.847,-0.001 z m -44.5,-254.2 -0.8,2.05 c -0.466,1.3 -1.966,2.4 -4.5,3.3 l -8.15,12.2 -4.1,7.75 -4.05,9 -6.95,11.4 -0.8,3.3 2.45,9.75 4.45,20.85 c 3.967,4.8 5.883,12.683 5.75,23.65 1.767,1.633 3.533,2.45 5.3,2.45 0.667,0.066 1.333,-0.067 2,-0.4 l 0.45,-4.1 -0.85,-5.3 -1.2,-2.05 -1.25,-5.3 -0.4,-0.4 -0.8,0.4 H 246 l -1.65,-2.45 -0.8,-2.05 -0.85,-4.05 0.4,-2.85 1.25,-0.45 1.2,0.85 v -8.15 l 1.25,-5.75 c 1.833,-6.533 7.133,-9.783 15.899,-9.75 0.834,-0.033 1.65,-0.033 2.451,0 5.633,1.2 9.449,4.45 11.449,9.75 l 0.801,4.1 1.199,3.25 -0.4,6.15 1.25,-1.25 h 0.801 l 0.8,1.25 v 2.85 l -0.399,2.05 -1.201,4.05 -1.25,2.05 -0.799,0.4 -1.25,-0.4 -1.201,4.5 -1.649,3.25 -0.399,5.7 v 3.3 c 0.766,0.8 1.717,1.2 2.85,1.2 1.166,-0.133 2.533,-0.684 4.1,-1.65 l 1.6,-0.4 0.451,-2.45 v -6.9 l 0.399,-4.5 c 0.866,-3.6 1.95,-6.184 3.25,-7.75 l 1.25,-3.7 2,-15.9 0.851,-4.5 2.449,-9.35 -0.449,-2.05 -1.601,-3.25 -4.5,-6.95 -7.75,-14.7 -2.851,-4.5 -8.151,-11.4 c -2.134,-0.566 -3.634,-1.517 -4.5,-2.85 l -0.8,-1.65 v -4.1 l -0.45,-1.6 -0.4,-0.4 -0.8,1.6 z m -0.4,-18.75 c 0.533,1.633 0.267,4.083 -0.8,7.35 l 2,0.8 c 0.3,-0.467 0.167,-1.95 -0.4,-4.45 l 0.4,-3.3 -0.8,-2.45 z m 45.3,54.25 c 0.933,0.767 1.883,2.95 2.85,6.55 l -0.4,11.85 2.45,13.05 -0.45,12.2 -1.199,13.5 -1.65,11 -0.4,6.95 v 10.6 l -1.199,8.15 -1.65,6.95 -6.1,17.55 -7.351,31.8 -0.399,2.45 -0.451,2.05 v 6.95 4.05 6.15 l 1.25,4.9 0.801,2.45 c -0.133,-0.167 0.967,0.1 3.3,0.8 1.634,0.399 3.667,0.8 6.101,1.2 3.766,0.833 7.933,1.833 12.5,3 4.533,1.133 8.799,2.316 12.799,3.55 0.934,0.066 1.884,0.333 2.851,0.8 1.167,0.066 2.116,0.35 2.851,0.85 6.199,2.301 11.766,4.283 16.699,5.95 4.9,1.667 7.5,2.534 7.801,2.601 4.799,1.833 8.199,5.5 10.199,11 1.434,5.5 -1.434,11.633 -8.6,18.399 l -4.9,2 -10.6,2.45 -9.801,4.1 -4.049,1.2 -9,1.65 -6.5,2.05 -2.451,0.8 -2.452,0.8 -1.65,0.45 -1.199,0.4 -2.451,1.2 -6.55,2.85 -3.65,2.05 -7.75,4.101 c -0.133,0.333 -0.267,0.467 -0.4,0.399 -1.699,0.733 -3.616,2.5 -5.75,5.3 -2.3,3.268 -5.017,7.75 -8.15,13.45 -0.533,0.9 -1.082,2 -1.649,3.3 v 0.4 l -0.8,4.05 -0.4,1.25 0.4,6.101 c -0.2,2.232 -0.6,3.467 -1.2,3.699 l -0.45,1.601 0.45,1.25 -0.45,0.8 -1.6,0.8 h -0.801 l -1.649,-0.399 -1.65,-1.2 -0.8,-1.25 -1.25,-2.851 v -2.451 -2.45 h -0.4 v 4.5 0.399 l -0.8,7.351 -0.4,2.05 2.05,6.1 1.6,4.9 v 0.4 l 1.65,6.55 v 0.8 l 0.399,2.85 v 6.95 0.4 2.45 6.55 1.2 0.399 l 0.801,16.351 0.85,2.85 0.4,1.2 2.05,4.899 v 1.25 0.801 l 0.399,5.3 v 0.399 0.4 0.45 h 0.4 v 0.399 h 0.4 v 0.4 0.4 0.8 3.7 0.8 0.399 l 0.4,3.301 v 0.399 0.4 l 0.399,0.8 v 0.4 l 0.45,1.25 0.4,0.8 v 0.399 0.45 l 0.399,1.601 v 0.399 0.4 0.45 c 0,0.666 0,1.333 0,2 0,0.3 0,0.583 0,0.85 -0.134,0.4 -0.267,0.8 -0.399,1.2 v 0.399 1.25 1.2 0.455 0.8 l -0.4,1.601 -0.45,0.85 c -1.066,1.166 -2.149,1.7 -3.25,1.6 -0.933,0 -1.884,-0.399 -2.851,-1.199 H 262.3 l -0.8,1.649 h -1.25 -0.8 l -0.85,-0.85 -2,0.399 -0.85,-0.399 -0.4,-0.8 h -1.6 c -0.367,-0.967 -1.333,-1.518 -2.9,-1.65 v -0.4 l -0.4,-1.199 -0.4,-1.25 v -0.4 -1.2 -0.85 -1.602 -1.25 -0.8 -0.399 l 0.4,-1.25 V 459 l 0.4,-1.25 0.45,-1.6 v -0.4 -0.85 l 0.4,-2 v -0.851 -0.8 -0.4 -0.399 l 0.4,-2.45 v -1.65 l 0.4,-2.05 v -0.4 c 0.2,-1.167 0.2,-2.117 0,-2.851 -0.333,-1.5 -0.883,-3 -1.65,-4.5 v -6.1 -2.05 l -0.4,-3.25 -3.25,-11.049 -1.65,-4.449 -6.9,-19.2 -0.45,-1.65 -1.6,-5.7 -1.25,-13.449 v -1.25 l -0.4,-4.45 -1.6,-6.15 -0.45,-4.45 -0.4,-9.8 -1.6,-8.149 -4.1,-26.95 -0.4,-3.25 -0.85,-8.2 v -2.4 -2.449 -4.5 l 1.25,-18.351 1.65,-9.8 0.8,-3.3 2.85,-8.55 2.05,-6.95 v -6.9 -9 l -0.4,-3.65 v -0.85 l -6.15,-28.15 -2.05,-6.9 -4.45,-12.253 -2.05,-6.95 -0.8,-4.9 -0.45,-4.5 -0.4,-15.9 -1.2,-7.75 -1.25,-13.45 -0.4,-2.05 -0.4,-11 v -4.9 l 0.8,-12.25 -0.4,-13.05 0.4,-1.65 2.05,-4.05 10.2,-14.7 6.95,-8.55 13.45,-14.3 c 0.533,-0.066 1.083,-1.566 1.65,-4.5 l 1.2,-8.95 1.25,-3.3 2.05,-5.7 1.6,-3.65 1.25,-4.1 0.4,-1.65 0.4,-0.4 h 1.2 l 0.45,-0.4 0.8,-0.4 2.05,0.4 v 0.4 h 0.4 l 0.8,0.85 h 0.85 l 0.801,0.4 1.6,4.9 1.649,3.25 1.65,6.55 1.199,2.45 1.65,10.6 0.8,3.65 13.5,13.45 7.3,8.2 z" /></g><g
         id="g272"
         transform="matrix(1.66,0,0,1.66,-0.42,54.26)"><g
           id="text270"
           style="font-weight:normal;font-size:16px;font-family:Aclonica;opacity:1;fill:#ffffff;fill-rule:nonzero;stroke:#000000;stroke-width:0.5;stroke-linecap:butt;stroke-linejoin:miter;stroke-miterlimit:10;stroke-dasharray:none"
           aria-label="Psicologia integral"><path
             id="path284"
             style="fill:#ffffff"
             d="m -55.395,5.04 h -3.101563 V -6.21 h 6.078125 q 0.789063,0 1.507813,0.2109375 0.726562,0.2109375 1.28125,0.640625 0.554687,0.421875 0.882812,1.0703125 0.335938,0.640625 0.335938,1.5078125 0,0.546875 -0.15625,1.03125 -0.15625,0.4765625 -0.4375,0.87499996 -0.273438,0.3984375 -0.648438,0.71875 -0.375,0.3203125 -0.820312,0.5390625 -0.445313,0.21875 -0.945313,0.3359375 -0.492187,0.1171875 -1,0.1171875 H -55.395 Z m 3.84375,-7.8203125 q 0,-1.0859375 -0.554688,-1.703125 -0.546875,-0.625 -1.65625,-0.625 H -55.395 v 4.88281246 h 1.632812 q 0.59375,0 1.007813,-0.1875 0.421875,-0.1953125 0.6875,-0.5390625 0.265625,-0.34374996 0.390625,-0.80468746 0.125,-0.46875 0.125,-1.0234375 z" /><path
             id="path286"
             style="fill:#ffffff"
             d="m -39.277813,2.1571875 q 0,0.59375 -0.171875,1.0546875 -0.171875,0.4609375 -0.46875,0.8046875 -0.296875,0.3359375 -0.703125,0.5703125 -0.40625,0.2265625 -0.875,0.3671875 -0.460937,0.140625 -0.96875,0.203125 -0.507812,0.0625 -1.007812,0.0625 -0.671875,0 -1.1875,-0.085937 Q -45.17625,5.0478125 -45.645,4.8603125 -46.11375,4.665 -46.5825,4.3603125 -47.043438,4.055625 -47.61375,3.618125 l 1.539062,-1.2578125 Q -45.86375,2.75875 -45.52,3.086875 q 0.351562,0.3203125 0.726562,0.5546875 0.375,0.234375 0.726563,0.359375 0.351562,0.125 0.570312,0.125 0.179688,0 0.40625,-0.00781 0.226563,-0.015625 0.460938,-0.046875 0.234375,-0.039063 0.460937,-0.109375 0.226563,-0.070312 0.398438,-0.1875 0.179687,-0.125 0.28125,-0.3046875 0.109375,-0.1875 0.109375,-0.4453125 0,-0.265625 -0.140625,-0.4609375 -0.132813,-0.203125 -0.351563,-0.3515625 -0.21875,-0.1484375 -0.5,-0.25 -0.28125,-0.1015625 -0.570312,-0.1796875 -0.28125,-0.078125 -0.546875,-0.1328125 -0.265625,-0.0625 -0.460938,-0.1171875 -0.359375,-0.1015625 -0.757812,-0.203125 -0.398438,-0.109375 -0.789063,-0.2421875 -0.390625,-0.14062504 -0.75,-0.32812504 -0.351562,-0.1875 -0.625,-0.4453125 -0.265625,-0.265625 -0.429687,-0.6171875 -0.15625,-0.359375 -0.15625,-0.83593746 0,-0.875 0.34375,-1.4609375 0.351562,-0.59375 0.921875,-0.9453125 0.570312,-0.359375 1.296875,-0.5078125 0.726562,-0.1484375 1.476562,-0.1484375 0.515625,0 1.085938,0.109375 0.570312,0.1015625 1.109375,0.3125 0.539062,0.203125 1.007812,0.5 0.46875,0.296875 0.78125,0.6796875 L -40.973125,-1.335 q -0.171875,-0.46875 -0.453125,-0.8046875 -0.273438,-0.3359375 -0.601563,-0.546875 -0.320312,-0.21875 -0.664062,-0.3203125 -0.335938,-0.1015625 -0.625,-0.1015625 -0.28125,0 -0.632813,0.023437 -0.351562,0.023437 -0.664062,0.1328125 -0.304688,0.109375 -0.523438,0.3359375 -0.210937,0.21875 -0.210937,0.609375 0,0.28125 0.125,0.484375 0.132812,0.1953125 0.34375,0.34375 0.210937,0.140625 0.476562,0.24218746 0.273438,0.09375 0.554688,0.171875 0.28125,0.0703125 0.546875,0.125 0.265625,0.0546875 0.476562,0.1171875 0.359375,0.1015625 0.757813,0.2109375 0.40625,0.1015625 0.796875,0.2421875 0.390625,0.1328125 0.75,0.3203125 0.367187,0.1796875 0.640625,0.4453125 0.273437,0.265625 0.4375,0.62500004 0.164062,0.3515625 0.164062,0.8359375 z" /><path
             id="path288"
             style="fill:#ffffff"
             d="m -34.8325,-6.163125 q 0,0.296875 -0.117188,0.5625 -0.109375,0.265625 -0.304687,0.4609375 -0.195313,0.1953125 -0.460938,0.3125 -0.265625,0.109375 -0.5625,0.109375 -0.296875,0 -0.5625,-0.109375 -0.257812,-0.1171875 -0.453125,-0.3125 -0.195312,-0.1953125 -0.3125,-0.4609375 -0.109375,-0.265625 -0.109375,-0.5625 0,-0.296875 0.109375,-0.5546875 0.117188,-0.265625 0.3125,-0.4609375 0.195313,-0.1953125 0.453125,-0.3046875 0.265625,-0.1171875 0.5625,-0.1171875 0.296875,0 0.5625,0.1171875 0.265625,0.109375 0.460938,0.3046875 0.195312,0.1953125 0.304687,0.4609375 Q -34.8325,-6.46 -34.8325,-6.163125 Z M -34.949688,5.04 h -2.648437 v -9.015625 h 2.648437 z" /><path
             id="path290"
             style="fill:#ffffff"
             d="m -24.402813,-1.7490625 -1.140625,0.453125 q -0.273437,-0.859375 -0.914062,-1.3203125 -0.640625,-0.4609375 -1.539063,-0.4609375 -0.484375,0 -0.867187,0.15625 -0.375,0.1484375 -0.664063,0.4140625 -0.28125,0.265625 -0.484375,0.6171875 -0.195312,0.3515625 -0.320312,0.75 -0.125,0.39843746 -0.179688,0.82812496 -0.05469,0.421875 -0.05469,0.8203125 0,0.4296875 0.04687,0.86718754 0.04687,0.4375 0.15625,0.84375 0.117187,0.3984375 0.304687,0.75 0.1875,0.34375 0.46875,0.6015625 0.289063,0.2578125 0.679688,0.40625 0.398437,0.1484375 0.914062,0.1484375 0.414063,0 0.789063,-0.125 0.375,-0.125 0.6875,-0.3515625 0.3125,-0.2265625 0.554687,-0.5390625 0.242188,-0.3125 0.382813,-0.6953125 l 1.148437,0.421875 q -0.257812,0.6171875 -0.6875,1.0703125 -0.421875,0.4453125 -0.960937,0.7421875 -0.539063,0.2890625 -1.15625,0.4296875 -0.617188,0.140625 -1.25,0.140625 -1.023438,0 -1.898438,-0.34375 -0.875,-0.3515625 -1.515625,-0.9765625 Q -32.535625,3.2665625 -32.895,2.4071875 -33.254375,1.54 -33.254375,0.50874996 q 0,-1.0390625 0.351562,-1.90624996 0.359375,-0.8671875 0.992188,-1.4921875 0.632812,-0.625 1.507812,-0.96875 0.875,-0.34375 1.914063,-0.34375 0.65625,0 1.28125,0.1484375 0.625,0.140625 1.15625,0.4453125 0.539062,0.296875 0.960937,0.7578125 0.429688,0.4609375 0.6875,1.1015625 z" /><path
             id="path292"
             style="fill:#ffffff"
             d="m -13.293438,0.50874996 q 0,0.70312504 -0.1875,1.32031254 -0.1875,0.6171875 -0.523437,1.140625 Q -14.3325,3.493125 -14.80125,3.915 -15.27,4.3290625 -15.8325,4.618125 q -0.554688,0.2890625 -1.195313,0.4453125 -0.632812,0.15625 -1.304687,0.15625 -0.671875,0 -1.304688,-0.15625 Q -20.27,4.9071875 -20.8325,4.618125 -21.387188,4.3290625 -21.855938,3.915 -22.324688,3.493125 -22.660625,2.9696875 -22.98875,2.44625 -23.17625,1.8290625 q -0.1875,-0.625 -0.1875,-1.32031254 0,-0.6953125 0.1875,-1.3125 0.1875,-0.62499996 0.515625,-1.14843746 0.335937,-0.5234375 0.804687,-0.9375 0.46875,-0.421875 1.023438,-0.7109375 0.5625,-0.2890625 1.195312,-0.4453125 0.632813,-0.15625 1.304688,-0.15625 0.671875,0 1.304687,0.15625 0.640625,0.15625 1.195313,0.4453125 0.5625,0.2890625 1.03125,0.7109375 0.46875,0.4140625 0.796875,0.9375 0.335937,0.5234375 0.523437,1.14843746 0.1875,0.6171875 0.1875,1.3125 z m -2.6875,0 q 0,-0.375 -0.04687,-0.7890625 -0.03906,-0.421875 -0.140625,-0.82031246 -0.101562,-0.40625 -0.28125,-0.7734375 -0.171875,-0.375 -0.429687,-0.6484375 -0.257813,-0.28125 -0.617188,-0.4453125 -0.359375,-0.171875 -0.835937,-0.171875 -0.453125,0 -0.804688,0.171875 -0.351562,0.171875 -0.617187,0.4609375 -0.257813,0.28125 -0.4375,0.65625 -0.171875,0.375 -0.28125,0.78125 -0.109375,0.39843746 -0.15625,0.81249996 -0.04687,0.40625 -0.04687,0.765625 0,0.359375 0.04687,0.77343754 0.04687,0.40625 0.15625,0.8125 0.109375,0.40625 0.28125,0.78125 0.179687,0.3671875 0.4375,0.65625 0.265625,0.28125 0.617187,0.453125 0.351563,0.171875 0.804688,0.171875 0.46875,0 0.828125,-0.1640625 Q -17.145,3.82125 -16.887188,3.54 q 0.265625,-0.28125 0.4375,-0.6484375 0.171875,-0.3671875 0.273438,-0.7734375 0.109375,-0.40625 0.148437,-0.8203125 0.04687,-0.41406254 0.04687,-0.78906254 z" /><path
             id="path294"
             style="fill:#ffffff"
             d="m -8.996563,5.04 h -2.640625 V -8.1396875 h 1.015625 l 1.625,2.7421875 z" /><path
             id="path296"
             style="fill:#ffffff"
             d="m 2.737812,0.50874996 q 0,0.70312504 -0.1875,1.32031254 Q 2.362812,2.44625 2.0268745,2.9696875 1.6987495,3.493125 1.2299995,3.915 0.76124954,4.3290625 0.19874954,4.618125 q -0.5546875,0.2890625 -1.1953125,0.4453125 -0.63281254,0.15625 -1.30468754,0.15625 -0.671875,0 -1.3046875,-0.15625 Q -4.2387505,4.9071875 -4.8012505,4.618125 -5.355938,4.3290625 -5.824688,3.915 -6.293438,3.493125 -6.6293755,2.9696875 -6.9575005,2.44625 -7.1450005,1.8290625 q -0.1875,-0.625 -0.1875,-1.32031254 0,-0.6953125 0.1875,-1.3125 0.1875,-0.62499996 0.515625,-1.14843746 0.3359375,-0.5234375 0.8046875,-0.9375 0.46875,-0.421875 1.0234375,-0.7109375 0.5625,-0.2890625 1.1953125,-0.4453125 0.6328125,-0.15625 1.3046875,-0.15625 0.671875,0 1.30468754,0.15625 0.640625,0.15625 1.1953125,0.4453125 0.5625,0.2890625 1.03124996,0.7109375 0.46875,0.4140625 0.796875,0.9375 0.3359375,0.5234375 0.5234375,1.14843746 0.1875,0.6171875 0.1875,1.3125 z m -2.68749996,0 q 0,-0.375 -0.046875,-0.7890625 -0.0390625,-0.421875 -0.140625,-0.82031246 -0.1015625,-0.40625 -0.28125,-0.7734375 -0.171875,-0.375 -0.4296875,-0.6484375 -0.25781254,-0.28125 -0.61718754,-0.4453125 -0.359375,-0.171875 -0.8359375,-0.171875 -0.453125,0 -0.8046875,0.171875 -0.3515625,0.171875 -0.6171875,0.4609375 -0.2578125,0.28125 -0.4375,0.65625 -0.171875,0.375 -0.28125,0.78125 -0.109375,0.39843746 -0.15625,0.81249996 -0.046875,0.40625 -0.046875,0.765625 0,0.359375 0.046875,0.77343754 0.046875,0.40625 0.15625,0.8125 0.109375,0.40625 0.28125,0.78125 0.1796875,0.3671875 0.4375,0.65625 0.265625,0.28125 0.6171875,0.453125 0.3515625,0.171875 0.8046875,0.171875 0.46875,0 0.828125,-0.1640625 0.359375,-0.171875 0.61718754,-0.453125 0.265625,-0.28125 0.4375,-0.6484375 0.171875,-0.3671875 0.2734375,-0.7734375 0.109375,-0.40625 0.1484375,-0.8203125 0.046875,-0.41406254 0.046875,-0.78906254 z" /><path
             id="path298"
             style="fill:#ffffff"
             d="m 13.48,3.9540625 q 0,1.078125 -0.320313,2.03125 -0.320312,0.953125 -0.929687,1.6640625 -0.609375,0.71875 -1.5,1.1328125 -0.882813,0.421875 -2.0156255,0.421875 -0.625,0 -1.265625,-0.140625 Q 6.815937,8.9228125 6.2456245,8.6259375 5.6831245,8.336875 5.2299995,7.88375 4.784687,7.4384375 4.5268745,6.8290625 L 5.6674995,6.399375 Q 5.815937,6.7821875 6.050312,7.1025 q 0.2421875,0.3203125 0.5546875,0.546875 0.3125,0.234375 0.6875,0.359375 0.375,0.1328125 0.7890625,0.1328125 0.78125,0 1.3046875,-0.3203125 0.53125,-0.3203125 0.8515625,-0.8359375 0.320313,-0.515625 0.460938,-1.171875 Q 10.839375,5.165 10.839375,4.493125 V 3.961875 Q 10.370625,4.6025 9.706562,4.915 9.050312,5.2196875 8.2612495,5.2196875 q -1.03125,0 -1.84375,-0.3671875 -0.8125,-0.3671875 -1.375,-1 -0.5625,-0.640625 -0.859375,-1.5 -0.296875,-0.859375 -0.296875,-1.84375004 0,-0.984375 0.296875,-1.84374996 0.296875,-0.859375 0.859375,-1.4921875 0.5625,-0.640625 1.375,-1.0078125 0.8125,-0.3671875 1.84375,-0.3671875 0.5234375,0 0.9921875,0.15625 0.4765625,0.15625 0.867188,0.4453125 0.398437,0.28125 0.695312,0.6875 0.304688,0.3984375 0.476563,0.890625 l 1.171875,-1.9609375 H 13.48 Z M 10.82375,0.50874996 q 0,-0.3515625 -0.03906,-0.7421875 Q 10.753437,-0.62406254 10.6675,-1.006875 10.581562,-1.3896875 10.425312,-1.7334375 10.276875,-2.085 10.034687,-2.350625 9.800312,-2.6240625 9.4643745,-2.7803125 q -0.3359375,-0.15625 -0.78125,-0.15625 -0.4453125,0 -0.7734375,0.1640625 -0.328125,0.15625 -0.5625,0.4296875 -0.234375,0.265625 -0.390625,0.6171875 -0.1484375,0.3515625 -0.234375,0.73437496 -0.085937,0.3828125 -0.125,0.7734375 -0.03125,0.3828125 -0.03125,0.7265625 0,0.34375 0.03125,0.73437504 0.039063,0.390625 0.125,0.7734375 0.085937,0.3828125 0.234375,0.734375 0.15625,0.3515625 0.390625,0.625 0.234375,0.265625 0.5625,0.4296875 0.328125,0.15625 0.7734375,0.15625 0.40625,0 0.71875,-0.1640625 0.3203125,-0.171875 0.5546875,-0.453125 0.242188,-0.28125 0.40625,-0.640625 Q 10.526875,2.3446875 10.628437,1.961875 10.73,1.5790625 10.776875,1.2040625 10.82375,0.82124996 10.82375,0.50874996 Z" /><path
             id="path300"
             style="fill:#ffffff"
             d="m 18.44875,-6.163125 q 0,0.296875 -0.117188,0.5625 -0.109375,0.265625 -0.304687,0.4609375 -0.195313,0.1953125 -0.460938,0.3125 -0.265625,0.109375 -0.5625,0.109375 -0.296875,0 -0.5625,-0.109375 -0.257812,-0.1171875 -0.453125,-0.3125 Q 15.7925,-5.335 15.675312,-5.600625 q -0.109375,-0.265625 -0.109375,-0.5625 0,-0.296875 0.109375,-0.5546875 0.117188,-0.265625 0.3125,-0.4609375 0.195313,-0.1953125 0.453125,-0.3046875 0.265625,-0.1171875 0.5625,-0.1171875 0.296875,0 0.5625,0.1171875 0.265625,0.109375 0.460938,0.3046875 0.195312,0.1953125 0.304687,0.4609375 Q 18.44875,-6.46 18.44875,-6.163125 Z M 18.331562,5.04 h -2.648437 v -9.015625 h 2.648437 z" /><path
             id="path302"
             style="fill:#ffffff"
             d="M 29.63625,5.04 H 26.995625 V 3.961875 Q 26.526875,4.6025 25.862812,4.915 25.206562,5.2196875 24.4175,5.2196875 q -1.03125,0 -1.84375,-0.3671875 -0.8125,-0.3671875 -1.375,-1 -0.5625,-0.640625 -0.859375,-1.5 Q 20.0425,1.493125 20.0425,0.50874996 q 0,-0.984375 0.296875,-1.84374996 0.296875,-0.859375 0.859375,-1.4921875 0.5625,-0.640625 1.375,-1.0078125 0.8125,-0.3671875 1.84375,-0.3671875 0.523437,0 0.992187,0.15625 0.476563,0.15625 0.867188,0.4453125 0.398437,0.28125 0.695312,0.6875 0.304688,0.3984375 0.476563,0.890625 l 1.171875,-1.9609375 H 29.63625 Z M 26.98,0.50874996 q 0,-0.3515625 -0.03906,-0.7421875 -0.03125,-0.390625 -0.117187,-0.77343746 -0.08594,-0.3828125 -0.242188,-0.7265625 Q 26.433125,-2.085 26.190937,-2.350625 q -0.234375,-0.2734375 -0.570312,-0.4296875 -0.335938,-0.15625 -0.78125,-0.15625 -0.445313,0 -0.773438,0.1640625 -0.328125,0.15625 -0.5625,0.4296875 -0.234375,0.265625 -0.390625,0.6171875 -0.148437,0.3515625 -0.234375,0.73437496 -0.08594,0.3828125 -0.125,0.7734375 -0.03125,0.3828125 -0.03125,0.7265625 0,0.34375 0.03125,0.73437504 0.03906,0.390625 0.125,0.7734375 0.08594,0.3828125 0.234375,0.734375 0.15625,0.3515625 0.390625,0.625 0.234375,0.265625 0.5625,0.4296875 0.328125,0.15625 0.773438,0.15625 0.40625,0 0.71875,-0.1640625 0.320312,-0.171875 0.554687,-0.453125 0.242188,-0.28125 0.40625,-0.640625 Q 26.683125,2.3446875 26.784687,1.961875 26.88625,1.5790625 26.933125,1.2040625 26.98,0.82124996 26.98,0.50874996 Z" /><path
             id="path304"
             style="fill:#ffffff"
             d="m 39.13625,-6.163125 q 0,0.296875 -0.117188,0.5625 -0.109375,0.265625 -0.304687,0.4609375 -0.195313,0.1953125 -0.460938,0.3125 -0.265625,0.109375 -0.5625,0.109375 -0.296875,0 -0.5625,-0.109375 -0.257812,-0.1171875 -0.453125,-0.3125 Q 36.48,-5.335 36.362812,-5.600625 q -0.109375,-0.265625 -0.109375,-0.5625 0,-0.296875 0.109375,-0.5546875 0.117188,-0.265625 0.3125,-0.4609375 0.195313,-0.1953125 0.453125,-0.3046875 0.265625,-0.1171875 0.5625,-0.1171875 0.296875,0 0.5625,0.1171875 0.265625,0.109375 0.460938,0.3046875 0.195312,0.1953125 0.304687,0.4609375 Q 39.13625,-6.46 39.13625,-6.163125 Z M 39.019062,5.04 h -2.648437 v -9.015625 h 2.648437 z" /><path
             id="path306"
             style="fill:#ffffff"
             d="m 50.464375,-0.13187504 q 0,0.9140625 -0.226563,1.90625004 -0.21875,0.9921875 -0.617187,1.9453125 Q 49.222187,4.6728125 48.6675,5.50875 48.112812,6.3525 47.44875,6.961875 L 46.456562,6.4228125 q 0.210938,-0.390625 0.398438,-0.875 0.1875,-0.484375 0.335937,-1.0234375 0.15625,-0.546875 0.273438,-1.125 0.125,-0.578125 0.203125,-1.140625 0.08594,-0.5703125 0.125,-1.1015625 0.04687,-0.53906254 0.04687,-1.00000004 0,-0.3046875 -0.02344,-0.6484375 -0.02344,-0.3515625 -0.101562,-0.69531246 -0.07031,-0.3515625 -0.195313,-0.671875 -0.125,-0.3203125 -0.335937,-0.5625 -0.203125,-0.2421875 -0.5,-0.390625 Q 46.394062,-2.96 45.995625,-2.96 q -0.390625,0 -0.695313,0.1796875 -0.304687,0.171875 -0.539062,0.4609375 -0.234375,0.28125 -0.40625,0.6484375 -0.164063,0.3671875 -0.273438,0.75781246 -0.101562,0.3828125 -0.148437,0.7578125 -0.04687,0.375 -0.04687,0.671875 V 5.04 h -2.648438 v -9.0234375 h 1.015625 l 1.210938,2.1015625 q 0.21875,-0.5234375 0.546875,-0.953125 0.328125,-0.4296875 0.742187,-0.734375 0.414063,-0.3046875 0.914063,-0.46875 0.507812,-0.1640625 1.09375,-0.1640625 0.9375,0 1.632812,0.3046875 0.695313,0.3046875 1.15625,0.8515625 0.460938,0.5390625 0.6875,1.2890625 0.226563,0.7421875 0.226563,1.62499996 z" /><path
             id="path308"
             style="fill:#ffffff"
             d="m 55.51125,5.04 h -2.648438 v -7.9765625 h -1.640625 v -1.046875 h 1.640625 V -7.30375 h 2.648438 v 3.3203125 h 2.734375 v 1.046875 H 55.51125 Z" /><path
             id="path310"
             style="fill:#ffffff"
             d="m 61.253437,0.75874996 q 0.484375,0.109375 0.96875,0.171875 0.484375,0.0625 0.976563,0.0625 0.515625,0 0.953125,-0.09375 0.445312,-0.1015625 0.765625,-0.328125 0.328125,-0.234375 0.515625,-0.6171875 0.1875,-0.3828125 0.1875,-0.953125 0,-0.46093746 -0.125,-0.84374996 -0.125,-0.3828125 -0.375,-0.65625 -0.242188,-0.2734375 -0.601563,-0.421875 -0.359375,-0.15625 -0.835937,-0.15625 -0.445313,0 -0.804688,0.1640625 -0.351562,0.1640625 -0.625,0.4453125 Q 61.987812,-2.194375 61.7925,-1.8271875 61.605,-1.46 61.48,-1.0615625 q -0.125,0.39843746 -0.179688,0.80468746 -0.05469,0.40625 -0.05469,0.765625 0,0.0625 0,0.125 0,0.0625 0.0078,0.125 z M 67.76125,-1.0225 q 0,0.55468746 -0.179688,0.99218746 -0.179687,0.4296875 -0.492187,0.7578125 -0.304688,0.32812504 -0.710938,0.55468754 -0.40625,0.2265625 -0.867187,0.375 -0.460938,0.140625 -0.953125,0.203125 -0.484375,0.0625 -0.945313,0.0625 -0.585937,0 -1.15625,-0.078125 -0.570312,-0.085937 -1.125,-0.265625 0.08594,0.515625 0.273438,0.984375 0.1875,0.4609375 0.5,0.8125 0.3125,0.34375 0.765625,0.546875 0.460937,0.203125 1.085937,0.203125 0.414063,0 0.789063,-0.125 0.375,-0.125 0.6875,-0.3515625 Q 65.745625,3.4228125 65.98,3.1103125 66.222187,2.7978125 66.370625,2.415 L 67.51125,2.836875 Q 67.253437,3.4540625 66.800312,3.9071875 66.355,4.3525 65.784687,4.649375 q -0.5625,0.2890625 -1.203125,0.4296875 -0.632812,0.140625 -1.257812,0.140625 -1.03125,0 -1.90625,-0.34375 Q 60.5425,4.524375 59.909687,3.899375 59.276875,3.274375 58.9175,2.4071875 58.558125,1.54 58.558125,0.50874996 q 0,-1.03125 0.359375,-1.89843746 0.359375,-0.8671875 0.992187,-1.4921875 0.632813,-0.625 1.507813,-0.96875 0.875,-0.3515625 1.90625,-0.3515625 0.5,0 1.023437,0.070312 0.523438,0.070312 1.015625,0.2265625 0.492188,0.1484375 0.929688,0.390625 0.4375,0.2421875 0.757812,0.6015625 0.328125,0.3515625 0.515625,0.8203125 0.195313,0.46875 0.195313,1.0703125 z" /><path
             id="path312"
             style="fill:#ffffff"
             d="m 78.51125,3.9540625 q 0,1.078125 -0.320313,2.03125 -0.320312,0.953125 -0.929687,1.6640625 -0.609375,0.71875 -1.5,1.1328125 -0.882813,0.421875 -2.015625,0.421875 -0.625,0 -1.265625,-0.140625 -0.632813,-0.140625 -1.203125,-0.4375 Q 70.714375,8.336875 70.26125,7.88375 69.815937,7.4384375 69.558125,6.8290625 L 70.69875,6.399375 q 0.148437,0.3828125 0.382812,0.703125 0.242188,0.3203125 0.554688,0.546875 0.3125,0.234375 0.6875,0.359375 0.375,0.1328125 0.789062,0.1328125 0.78125,0 1.304688,-0.3203125 Q 74.94875,7.5009375 75.269062,6.9853125 75.589375,6.4696875 75.73,5.8134375 75.870625,5.165 75.870625,4.493125 V 3.961875 Q 75.401875,4.6025 74.737812,4.915 74.081562,5.2196875 73.2925,5.2196875 q -1.03125,0 -1.84375,-0.3671875 -0.8125,-0.3671875 -1.375,-1 -0.5625,-0.640625 -0.859375,-1.5 Q 68.9175,1.493125 68.9175,0.50874996 q 0,-0.984375 0.296875,-1.84374996 0.296875,-0.859375 0.859375,-1.4921875 0.5625,-0.640625 1.375,-1.0078125 0.8125,-0.3671875 1.84375,-0.3671875 0.523437,0 0.992187,0.15625 0.476563,0.15625 0.867188,0.4453125 0.398437,0.28125 0.695312,0.6875 0.304688,0.3984375 0.476563,0.890625 l 1.171875,-1.9609375 H 78.51125 Z M 75.855,0.50874996 q 0,-0.3515625 -0.03906,-0.7421875 -0.03125,-0.390625 -0.117187,-0.77343746 -0.08594,-0.3828125 -0.242188,-0.7265625 Q 75.308125,-2.085 75.065937,-2.350625 q -0.234375,-0.2734375 -0.570312,-0.4296875 -0.335938,-0.15625 -0.78125,-0.15625 -0.445313,0 -0.773438,0.1640625 -0.328125,0.15625 -0.5625,0.4296875 -0.234375,0.265625 -0.390625,0.6171875 -0.148437,0.3515625 -0.234375,0.73437496 -0.08594,0.3828125 -0.125,0.7734375 -0.03125,0.3828125 -0.03125,0.7265625 0,0.34375 0.03125,0.73437504 0.03906,0.390625 0.125,0.7734375 0.08594,0.3828125 0.234375,0.734375 0.15625,0.3515625 0.390625,0.625 0.234375,0.265625 0.5625,0.4296875 0.328125,0.15625 0.773438,0.15625 0.40625,0 0.71875,-0.1640625 0.320312,-0.171875 0.554687,-0.453125 Q 75.23,3.0634375 75.394062,2.7040625 75.558125,2.3446875 75.659687,1.961875 75.76125,1.5790625 75.808125,1.2040625 75.855,0.82124996 75.855,0.50874996 Z" /><path
             id="path314"
             style="fill:#ffffff"
             d="m 88.378437,-3.1865625 -1.484375,2.46093746 Q 86.800312,-1.038125 86.651875,-1.42875 86.503437,-1.819375 86.284687,-2.1553125 86.065937,-2.4990625 85.76125,-2.725625 85.456562,-2.96 85.058125,-2.96 q -0.367188,0 -0.640625,0.1875 -0.265625,0.1875 -0.453125,0.4921875 -0.1875,0.296875 -0.3125,0.6796875 -0.117188,0.375 -0.1875,0.76562496 -0.0625,0.3828125 -0.08594,0.7421875 -0.02344,0.3515625 -0.02344,0.609375 V 5.04 h -2.648438 v -9.0234375 h 1.015625 L 82.7925,-1.881875 q 0.21875,-0.5078125 0.5,-0.9296875 0.28125,-0.4296875 0.648437,-0.734375 0.367188,-0.3125 0.828125,-0.484375 0.46875,-0.171875 1.054688,-0.171875 0.304687,0 0.679687,0.054687 0.375,0.046875 0.734375,0.171875 0.359375,0.1171875 0.664063,0.3125 0.304687,0.1953125 0.476562,0.4765625 z" /><path
             id="path316"
             style="fill:#ffffff"
             d="M 98.38625,5.04 H 95.745625 V 3.961875 Q 95.276875,4.6025 94.612812,4.915 93.956562,5.2196875 93.1675,5.2196875 q -1.03125,0 -1.84375,-0.3671875 -0.8125,-0.3671875 -1.375,-1 -0.5625,-0.640625 -0.859375,-1.5 Q 88.7925,1.493125 88.7925,0.50874996 q 0,-0.984375 0.296875,-1.84374996 0.296875,-0.859375 0.859375,-1.4921875 0.5625,-0.640625 1.375,-1.0078125 0.8125,-0.3671875 1.84375,-0.3671875 0.523437,0 0.992187,0.15625 0.476563,0.15625 0.867188,0.4453125 0.398437,0.28125 0.695312,0.6875 0.304688,0.3984375 0.476563,0.890625 l 1.171875,-1.9609375 H 98.38625 Z M 95.73,0.50874996 q 0,-0.3515625 -0.03906,-0.7421875 -0.03125,-0.390625 -0.117187,-0.77343746 -0.08594,-0.3828125 -0.242188,-0.7265625 Q 95.183125,-2.085 94.940937,-2.350625 q -0.234375,-0.2734375 -0.570312,-0.4296875 -0.335938,-0.15625 -0.78125,-0.15625 -0.445313,0 -0.773438,0.1640625 -0.328125,0.15625 -0.5625,0.4296875 -0.234375,0.265625 -0.390625,0.6171875 -0.148437,0.3515625 -0.234375,0.73437496 -0.08594,0.3828125 -0.125,0.7734375 -0.03125,0.3828125 -0.03125,0.7265625 0,0.34375 0.03125,0.73437504 0.03906,0.390625 0.125,0.7734375 0.08594,0.3828125 0.234375,0.734375 0.15625,0.3515625 0.390625,0.625 0.234375,0.265625 0.5625,0.4296875 0.328125,0.15625 0.773438,0.15625 0.40625,0 0.71875,-0.1640625 0.320312,-0.171875 0.554687,-0.453125 0.242188,-0.28125 0.40625,-0.640625 Q 95.433125,2.3446875 95.534687,1.961875 95.63625,1.5790625 95.683125,1.2040625 95.73,0.82124996 95.73,0.50874996 Z" /><path
             id="path318"
             style="fill:#ffffff"
             d="m 103.22219,5.04 h -2.64063 V -8.1396875 h 1.01563 l 1.625,2.7421875 z" /></g></g></g></g></svg>